G04 #@! TF.GenerationSoftware,KiCad,Pcbnew,(5.1.2)-2*
G04 #@! TF.CreationDate,2019-06-12T22:46:05+02:00*
G04 #@! TF.ProjectId,TLC5954-Eval,544c4335-3935-4342-9d45-76616c2e6b69,rev?*
G04 #@! TF.SameCoordinates,Original*
G04 #@! TF.FileFunction,Legend,Top*
G04 #@! TF.FilePolarity,Positive*
%FSLAX46Y46*%
G04 Gerber Fmt 4.6, Leading zero omitted, Abs format (unit mm)*
G04 Created by KiCad (PCBNEW (5.1.2)-2) date 2019-06-12 22:46:05*
%MOMM*%
%LPD*%
G04 APERTURE LIST*
%ADD10C,0.120000*%
%ADD11C,0.150000*%
G04 APERTURE END LIST*
D10*
X101635000Y-101890000D02*
X102110000Y-101890000D01*
X102110000Y-101890000D02*
X102110000Y-102365000D01*
X94365000Y-110110000D02*
X93890000Y-110110000D01*
X93890000Y-110110000D02*
X93890000Y-109635000D01*
X101635000Y-110110000D02*
X102110000Y-110110000D01*
X102110000Y-110110000D02*
X102110000Y-109635000D01*
X94365000Y-101890000D02*
X93890000Y-101890000D01*
X87670000Y-121000000D02*
X87670000Y-119890000D01*
X87670000Y-119890000D02*
X89000000Y-119890000D01*
X87670000Y-131090000D02*
X108110000Y-131090000D01*
X108110000Y-131090000D02*
X108110000Y-122460000D01*
X87670000Y-122460000D02*
X108110000Y-122460000D01*
X87670000Y-131090000D02*
X87670000Y-122460000D01*
X105510000Y-131090000D02*
X105510000Y-122460000D01*
X102970000Y-131090000D02*
X102970000Y-122460000D01*
X100430000Y-131090000D02*
X100430000Y-122460000D01*
X97890000Y-131090000D02*
X97890000Y-122460000D01*
X95350000Y-131090000D02*
X95350000Y-122460000D01*
X92810000Y-131090000D02*
X92810000Y-122460000D01*
X90270000Y-131090000D02*
X90270000Y-122460000D01*
X107140000Y-122460000D02*
X107140000Y-122050000D01*
X106420000Y-122460000D02*
X106420000Y-122050000D01*
X104600000Y-122460000D02*
X104600000Y-122050000D01*
X103880000Y-122460000D02*
X103880000Y-122050000D01*
X102060000Y-122460000D02*
X102060000Y-122050000D01*
X101340000Y-122460000D02*
X101340000Y-122050000D01*
X99520000Y-122460000D02*
X99520000Y-122050000D01*
X98800000Y-122460000D02*
X98800000Y-122050000D01*
X96980000Y-122460000D02*
X96980000Y-122050000D01*
X96260000Y-122460000D02*
X96260000Y-122050000D01*
X94440000Y-122460000D02*
X94440000Y-122050000D01*
X93720000Y-122460000D02*
X93720000Y-122050000D01*
X91900000Y-122460000D02*
X91900000Y-122050000D01*
X91180000Y-122460000D02*
X91180000Y-122050000D01*
X89360000Y-122460000D02*
X89360000Y-122110000D01*
X88640000Y-122460000D02*
X88640000Y-122110000D01*
X90151900Y-131090000D02*
X90151900Y-122460000D01*
X90033805Y-131090000D02*
X90033805Y-122460000D01*
X89915710Y-131090000D02*
X89915710Y-122460000D01*
X89797615Y-131090000D02*
X89797615Y-122460000D01*
X89679520Y-131090000D02*
X89679520Y-122460000D01*
X89561425Y-131090000D02*
X89561425Y-122460000D01*
X89443330Y-131090000D02*
X89443330Y-122460000D01*
X89325235Y-131090000D02*
X89325235Y-122460000D01*
X89207140Y-131090000D02*
X89207140Y-122460000D01*
X89089045Y-131090000D02*
X89089045Y-122460000D01*
X88970950Y-131090000D02*
X88970950Y-122460000D01*
X88852855Y-131090000D02*
X88852855Y-122460000D01*
X88734760Y-131090000D02*
X88734760Y-122460000D01*
X88616665Y-131090000D02*
X88616665Y-122460000D01*
X88498570Y-131090000D02*
X88498570Y-122460000D01*
X88380475Y-131090000D02*
X88380475Y-122460000D01*
X88262380Y-131090000D02*
X88262380Y-122460000D01*
X88144285Y-131090000D02*
X88144285Y-122460000D01*
X88026190Y-131090000D02*
X88026190Y-122460000D01*
X87908095Y-131090000D02*
X87908095Y-122460000D01*
X87790000Y-131090000D02*
X87790000Y-122460000D01*
X87730000Y-92270000D02*
X87730000Y-91000000D01*
X89000000Y-92270000D02*
X87730000Y-92270000D01*
X107160000Y-89957071D02*
X107160000Y-89560000D01*
X106400000Y-89957071D02*
X106400000Y-89560000D01*
X107160000Y-80900000D02*
X107160000Y-86900000D01*
X106400000Y-80900000D02*
X107160000Y-80900000D01*
X106400000Y-86900000D02*
X106400000Y-80900000D01*
X105510000Y-89560000D02*
X105510000Y-86900000D01*
X104620000Y-89957071D02*
X104620000Y-89560000D01*
X103860000Y-89957071D02*
X103860000Y-89560000D01*
X104620000Y-80900000D02*
X104620000Y-86900000D01*
X103860000Y-80900000D02*
X104620000Y-80900000D01*
X103860000Y-86900000D02*
X103860000Y-80900000D01*
X102970000Y-89560000D02*
X102970000Y-86900000D01*
X102080000Y-89957071D02*
X102080000Y-89560000D01*
X101320000Y-89957071D02*
X101320000Y-89560000D01*
X102080000Y-80900000D02*
X102080000Y-86900000D01*
X101320000Y-80900000D02*
X102080000Y-80900000D01*
X101320000Y-86900000D02*
X101320000Y-80900000D01*
X100430000Y-89560000D02*
X100430000Y-86900000D01*
X99540000Y-89957071D02*
X99540000Y-89560000D01*
X98780000Y-89957071D02*
X98780000Y-89560000D01*
X99540000Y-80900000D02*
X99540000Y-86900000D01*
X98780000Y-80900000D02*
X99540000Y-80900000D01*
X98780000Y-86900000D02*
X98780000Y-80900000D01*
X97890000Y-89560000D02*
X97890000Y-86900000D01*
X97000000Y-89957071D02*
X97000000Y-89560000D01*
X96240000Y-89957071D02*
X96240000Y-89560000D01*
X97000000Y-80900000D02*
X97000000Y-86900000D01*
X96240000Y-80900000D02*
X97000000Y-80900000D01*
X96240000Y-86900000D02*
X96240000Y-80900000D01*
X95350000Y-89560000D02*
X95350000Y-86900000D01*
X94460000Y-89957071D02*
X94460000Y-89560000D01*
X93700000Y-89957071D02*
X93700000Y-89560000D01*
X94460000Y-80900000D02*
X94460000Y-86900000D01*
X93700000Y-80900000D02*
X94460000Y-80900000D01*
X93700000Y-86900000D02*
X93700000Y-80900000D01*
X92810000Y-89560000D02*
X92810000Y-86900000D01*
X91920000Y-89957071D02*
X91920000Y-89560000D01*
X91160000Y-89957071D02*
X91160000Y-89560000D01*
X91920000Y-80900000D02*
X91920000Y-86900000D01*
X91160000Y-80900000D02*
X91920000Y-80900000D01*
X91160000Y-86900000D02*
X91160000Y-80900000D01*
X90270000Y-89560000D02*
X90270000Y-86900000D01*
X89380000Y-89890000D02*
X89380000Y-89560000D01*
X88620000Y-89890000D02*
X88620000Y-89560000D01*
X89280000Y-86900000D02*
X89280000Y-80900000D01*
X89160000Y-86900000D02*
X89160000Y-80900000D01*
X89040000Y-86900000D02*
X89040000Y-80900000D01*
X88920000Y-86900000D02*
X88920000Y-80900000D01*
X88800000Y-86900000D02*
X88800000Y-80900000D01*
X88680000Y-86900000D02*
X88680000Y-80900000D01*
X89380000Y-80900000D02*
X89380000Y-86900000D01*
X88620000Y-80900000D02*
X89380000Y-80900000D01*
X88620000Y-86900000D02*
X88620000Y-80900000D01*
X87670000Y-86900000D02*
X87670000Y-89560000D01*
X108110000Y-86900000D02*
X87670000Y-86900000D01*
X108110000Y-89560000D02*
X108110000Y-86900000D01*
X87670000Y-89560000D02*
X108110000Y-89560000D01*
X88050000Y-105650000D02*
X90950000Y-105650000D01*
X88050000Y-103350000D02*
X90950000Y-103350000D01*
X88050000Y-103950000D02*
X88050000Y-103350000D01*
X88050000Y-102650000D02*
X90950000Y-102650000D01*
X88050000Y-100350000D02*
X90950000Y-100350000D01*
X88050000Y-100950000D02*
X88050000Y-100350000D01*
X94050000Y-96050000D02*
X94650000Y-96050000D01*
X94650000Y-96050000D02*
X94650000Y-98950000D01*
X92350000Y-96050000D02*
X92350000Y-98950000D01*
X97050000Y-96050000D02*
X97650000Y-96050000D01*
X97650000Y-96050000D02*
X97650000Y-98950000D01*
X95350000Y-96050000D02*
X95350000Y-98950000D01*
X98350000Y-96050000D02*
X98350000Y-98950000D01*
X100650000Y-96050000D02*
X100650000Y-98950000D01*
X100050000Y-96050000D02*
X100650000Y-96050000D01*
X101350000Y-96050000D02*
X101350000Y-98950000D01*
X103650000Y-96050000D02*
X103650000Y-98950000D01*
X103050000Y-96050000D02*
X103650000Y-96050000D01*
X107950000Y-100350000D02*
X105050000Y-100350000D01*
X107950000Y-102650000D02*
X105050000Y-102650000D01*
X107950000Y-102050000D02*
X107950000Y-102650000D01*
X107950000Y-103350000D02*
X105050000Y-103350000D01*
X107950000Y-105650000D02*
X105050000Y-105650000D01*
X107950000Y-105050000D02*
X107950000Y-105650000D01*
X107950000Y-106350000D02*
X105050000Y-106350000D01*
X107950000Y-108650000D02*
X105050000Y-108650000D01*
X107950000Y-108050000D02*
X107950000Y-108650000D01*
X107950000Y-109350000D02*
X105050000Y-109350000D01*
X107950000Y-111650000D02*
X105050000Y-111650000D01*
X107950000Y-111050000D02*
X107950000Y-111650000D01*
X101950000Y-116450000D02*
X101350000Y-116450000D01*
X101350000Y-116450000D02*
X101350000Y-113550000D01*
X103650000Y-116450000D02*
X103650000Y-113550000D01*
X98950000Y-116450000D02*
X98350000Y-116450000D01*
X98350000Y-116450000D02*
X98350000Y-113550000D01*
X100650000Y-116450000D02*
X100650000Y-113550000D01*
X95950000Y-116450000D02*
X95350000Y-116450000D01*
X95350000Y-116450000D02*
X95350000Y-113550000D01*
X97650000Y-116450000D02*
X97650000Y-113550000D01*
X92950000Y-116450000D02*
X92350000Y-116450000D01*
X92350000Y-116450000D02*
X92350000Y-113550000D01*
X94650000Y-116450000D02*
X94650000Y-113550000D01*
X88050000Y-111650000D02*
X90950000Y-111650000D01*
X88050000Y-109350000D02*
X90950000Y-109350000D01*
X88050000Y-109950000D02*
X88050000Y-109350000D01*
X88050000Y-108650000D02*
X90950000Y-108650000D01*
X88050000Y-106350000D02*
X90950000Y-106350000D01*
X88050000Y-106950000D02*
X88050000Y-106350000D01*
X87205438Y-96527728D02*
X89970226Y-99292516D01*
X88527728Y-95205438D02*
X87205438Y-96527728D01*
X91292516Y-97970226D02*
X88527728Y-95205438D01*
X106010000Y-97912779D02*
X106010000Y-97587221D01*
X104990000Y-97912779D02*
X104990000Y-97587221D01*
D11*
X97238095Y-100132380D02*
X97238095Y-100941904D01*
X97285714Y-101037142D01*
X97333333Y-101084761D01*
X97428571Y-101132380D01*
X97619047Y-101132380D01*
X97714285Y-101084761D01*
X97761904Y-101037142D01*
X97809523Y-100941904D01*
X97809523Y-100132380D01*
X98809523Y-101132380D02*
X98238095Y-101132380D01*
X98523809Y-101132380D02*
X98523809Y-100132380D01*
X98428571Y-100275238D01*
X98333333Y-100370476D01*
X98238095Y-100418095D01*
X85666666Y-120452380D02*
X85666666Y-121166666D01*
X85619047Y-121309523D01*
X85523809Y-121404761D01*
X85380952Y-121452380D01*
X85285714Y-121452380D01*
X86666666Y-121452380D02*
X86095238Y-121452380D01*
X86380952Y-121452380D02*
X86380952Y-120452380D01*
X86285714Y-120595238D01*
X86190476Y-120690476D01*
X86095238Y-120738095D01*
X85666666Y-90452380D02*
X85666666Y-91166666D01*
X85619047Y-91309523D01*
X85523809Y-91404761D01*
X85380952Y-91452380D01*
X85285714Y-91452380D01*
X86095238Y-90547619D02*
X86142857Y-90500000D01*
X86238095Y-90452380D01*
X86476190Y-90452380D01*
X86571428Y-90500000D01*
X86619047Y-90547619D01*
X86666666Y-90642857D01*
X86666666Y-90738095D01*
X86619047Y-90880952D01*
X86047619Y-91452380D01*
X86666666Y-91452380D01*
X87452380Y-105714285D02*
X86452380Y-105714285D01*
X86452380Y-105476190D01*
X86500000Y-105333333D01*
X86595238Y-105238095D01*
X86690476Y-105190476D01*
X86880952Y-105142857D01*
X87023809Y-105142857D01*
X87214285Y-105190476D01*
X87309523Y-105238095D01*
X87404761Y-105333333D01*
X87452380Y-105476190D01*
X87452380Y-105714285D01*
X87452380Y-104190476D02*
X87452380Y-104761904D01*
X87452380Y-104476190D02*
X86452380Y-104476190D01*
X86595238Y-104571428D01*
X86690476Y-104666666D01*
X86738095Y-104761904D01*
X86452380Y-103333333D02*
X86452380Y-103523809D01*
X86500000Y-103619047D01*
X86547619Y-103666666D01*
X86690476Y-103761904D01*
X86880952Y-103809523D01*
X87261904Y-103809523D01*
X87357142Y-103761904D01*
X87404761Y-103714285D01*
X87452380Y-103619047D01*
X87452380Y-103428571D01*
X87404761Y-103333333D01*
X87357142Y-103285714D01*
X87261904Y-103238095D01*
X87023809Y-103238095D01*
X86928571Y-103285714D01*
X86880952Y-103333333D01*
X86833333Y-103428571D01*
X86833333Y-103619047D01*
X86880952Y-103714285D01*
X86928571Y-103761904D01*
X87023809Y-103809523D01*
X87452380Y-102714285D02*
X86452380Y-102714285D01*
X86452380Y-102476190D01*
X86500000Y-102333333D01*
X86595238Y-102238095D01*
X86690476Y-102190476D01*
X86880952Y-102142857D01*
X87023809Y-102142857D01*
X87214285Y-102190476D01*
X87309523Y-102238095D01*
X87404761Y-102333333D01*
X87452380Y-102476190D01*
X87452380Y-102714285D01*
X87452380Y-101190476D02*
X87452380Y-101761904D01*
X87452380Y-101476190D02*
X86452380Y-101476190D01*
X86595238Y-101571428D01*
X86690476Y-101666666D01*
X86738095Y-101761904D01*
X86452380Y-100285714D02*
X86452380Y-100761904D01*
X86928571Y-100809523D01*
X86880952Y-100761904D01*
X86833333Y-100666666D01*
X86833333Y-100428571D01*
X86880952Y-100333333D01*
X86928571Y-100285714D01*
X87023809Y-100238095D01*
X87261904Y-100238095D01*
X87357142Y-100285714D01*
X87404761Y-100333333D01*
X87452380Y-100428571D01*
X87452380Y-100666666D01*
X87404761Y-100761904D01*
X87357142Y-100809523D01*
X92285714Y-95452380D02*
X92285714Y-94452380D01*
X92523809Y-94452380D01*
X92666666Y-94500000D01*
X92761904Y-94595238D01*
X92809523Y-94690476D01*
X92857142Y-94880952D01*
X92857142Y-95023809D01*
X92809523Y-95214285D01*
X92761904Y-95309523D01*
X92666666Y-95404761D01*
X92523809Y-95452380D01*
X92285714Y-95452380D01*
X93809523Y-95452380D02*
X93238095Y-95452380D01*
X93523809Y-95452380D02*
X93523809Y-94452380D01*
X93428571Y-94595238D01*
X93333333Y-94690476D01*
X93238095Y-94738095D01*
X94666666Y-94785714D02*
X94666666Y-95452380D01*
X94428571Y-94404761D02*
X94190476Y-95119047D01*
X94809523Y-95119047D01*
X95285714Y-95452380D02*
X95285714Y-94452380D01*
X95523809Y-94452380D01*
X95666666Y-94500000D01*
X95761904Y-94595238D01*
X95809523Y-94690476D01*
X95857142Y-94880952D01*
X95857142Y-95023809D01*
X95809523Y-95214285D01*
X95761904Y-95309523D01*
X95666666Y-95404761D01*
X95523809Y-95452380D01*
X95285714Y-95452380D01*
X96809523Y-95452380D02*
X96238095Y-95452380D01*
X96523809Y-95452380D02*
X96523809Y-94452380D01*
X96428571Y-94595238D01*
X96333333Y-94690476D01*
X96238095Y-94738095D01*
X97142857Y-94452380D02*
X97761904Y-94452380D01*
X97428571Y-94833333D01*
X97571428Y-94833333D01*
X97666666Y-94880952D01*
X97714285Y-94928571D01*
X97761904Y-95023809D01*
X97761904Y-95261904D01*
X97714285Y-95357142D01*
X97666666Y-95404761D01*
X97571428Y-95452380D01*
X97285714Y-95452380D01*
X97190476Y-95404761D01*
X97142857Y-95357142D01*
X98285714Y-95452380D02*
X98285714Y-94452380D01*
X98523809Y-94452380D01*
X98666666Y-94500000D01*
X98761904Y-94595238D01*
X98809523Y-94690476D01*
X98857142Y-94880952D01*
X98857142Y-95023809D01*
X98809523Y-95214285D01*
X98761904Y-95309523D01*
X98666666Y-95404761D01*
X98523809Y-95452380D01*
X98285714Y-95452380D01*
X99809523Y-95452380D02*
X99238095Y-95452380D01*
X99523809Y-95452380D02*
X99523809Y-94452380D01*
X99428571Y-94595238D01*
X99333333Y-94690476D01*
X99238095Y-94738095D01*
X100190476Y-94547619D02*
X100238095Y-94500000D01*
X100333333Y-94452380D01*
X100571428Y-94452380D01*
X100666666Y-94500000D01*
X100714285Y-94547619D01*
X100761904Y-94642857D01*
X100761904Y-94738095D01*
X100714285Y-94880952D01*
X100142857Y-95452380D01*
X100761904Y-95452380D01*
X101285714Y-95452380D02*
X101285714Y-94452380D01*
X101523809Y-94452380D01*
X101666666Y-94500000D01*
X101761904Y-94595238D01*
X101809523Y-94690476D01*
X101857142Y-94880952D01*
X101857142Y-95023809D01*
X101809523Y-95214285D01*
X101761904Y-95309523D01*
X101666666Y-95404761D01*
X101523809Y-95452380D01*
X101285714Y-95452380D01*
X102809523Y-95452380D02*
X102238095Y-95452380D01*
X102523809Y-95452380D02*
X102523809Y-94452380D01*
X102428571Y-94595238D01*
X102333333Y-94690476D01*
X102238095Y-94738095D01*
X103761904Y-95452380D02*
X103190476Y-95452380D01*
X103476190Y-95452380D02*
X103476190Y-94452380D01*
X103380952Y-94595238D01*
X103285714Y-94690476D01*
X103190476Y-94738095D01*
X109452380Y-102714285D02*
X108452380Y-102714285D01*
X108452380Y-102476190D01*
X108500000Y-102333333D01*
X108595238Y-102238095D01*
X108690476Y-102190476D01*
X108880952Y-102142857D01*
X109023809Y-102142857D01*
X109214285Y-102190476D01*
X109309523Y-102238095D01*
X109404761Y-102333333D01*
X109452380Y-102476190D01*
X109452380Y-102714285D01*
X109452380Y-101190476D02*
X109452380Y-101761904D01*
X109452380Y-101476190D02*
X108452380Y-101476190D01*
X108595238Y-101571428D01*
X108690476Y-101666666D01*
X108738095Y-101761904D01*
X108452380Y-100571428D02*
X108452380Y-100476190D01*
X108500000Y-100380952D01*
X108547619Y-100333333D01*
X108642857Y-100285714D01*
X108833333Y-100238095D01*
X109071428Y-100238095D01*
X109261904Y-100285714D01*
X109357142Y-100333333D01*
X109404761Y-100380952D01*
X109452380Y-100476190D01*
X109452380Y-100571428D01*
X109404761Y-100666666D01*
X109357142Y-100714285D01*
X109261904Y-100761904D01*
X109071428Y-100809523D01*
X108833333Y-100809523D01*
X108642857Y-100761904D01*
X108547619Y-100714285D01*
X108500000Y-100666666D01*
X108452380Y-100571428D01*
X109452380Y-105238095D02*
X108452380Y-105238095D01*
X108452380Y-105000000D01*
X108500000Y-104857142D01*
X108595238Y-104761904D01*
X108690476Y-104714285D01*
X108880952Y-104666666D01*
X109023809Y-104666666D01*
X109214285Y-104714285D01*
X109309523Y-104761904D01*
X109404761Y-104857142D01*
X109452380Y-105000000D01*
X109452380Y-105238095D01*
X109452380Y-104190476D02*
X109452380Y-104000000D01*
X109404761Y-103904761D01*
X109357142Y-103857142D01*
X109214285Y-103761904D01*
X109023809Y-103714285D01*
X108642857Y-103714285D01*
X108547619Y-103761904D01*
X108500000Y-103809523D01*
X108452380Y-103904761D01*
X108452380Y-104095238D01*
X108500000Y-104190476D01*
X108547619Y-104238095D01*
X108642857Y-104285714D01*
X108880952Y-104285714D01*
X108976190Y-104238095D01*
X109023809Y-104190476D01*
X109071428Y-104095238D01*
X109071428Y-103904761D01*
X109023809Y-103809523D01*
X108976190Y-103761904D01*
X108880952Y-103714285D01*
X109452380Y-108238095D02*
X108452380Y-108238095D01*
X108452380Y-108000000D01*
X108500000Y-107857142D01*
X108595238Y-107761904D01*
X108690476Y-107714285D01*
X108880952Y-107666666D01*
X109023809Y-107666666D01*
X109214285Y-107714285D01*
X109309523Y-107761904D01*
X109404761Y-107857142D01*
X109452380Y-108000000D01*
X109452380Y-108238095D01*
X108880952Y-107095238D02*
X108833333Y-107190476D01*
X108785714Y-107238095D01*
X108690476Y-107285714D01*
X108642857Y-107285714D01*
X108547619Y-107238095D01*
X108500000Y-107190476D01*
X108452380Y-107095238D01*
X108452380Y-106904761D01*
X108500000Y-106809523D01*
X108547619Y-106761904D01*
X108642857Y-106714285D01*
X108690476Y-106714285D01*
X108785714Y-106761904D01*
X108833333Y-106809523D01*
X108880952Y-106904761D01*
X108880952Y-107095238D01*
X108928571Y-107190476D01*
X108976190Y-107238095D01*
X109071428Y-107285714D01*
X109261904Y-107285714D01*
X109357142Y-107238095D01*
X109404761Y-107190476D01*
X109452380Y-107095238D01*
X109452380Y-106904761D01*
X109404761Y-106809523D01*
X109357142Y-106761904D01*
X109261904Y-106714285D01*
X109071428Y-106714285D01*
X108976190Y-106761904D01*
X108928571Y-106809523D01*
X108880952Y-106904761D01*
X109452380Y-111238095D02*
X108452380Y-111238095D01*
X108452380Y-111000000D01*
X108500000Y-110857142D01*
X108595238Y-110761904D01*
X108690476Y-110714285D01*
X108880952Y-110666666D01*
X109023809Y-110666666D01*
X109214285Y-110714285D01*
X109309523Y-110761904D01*
X109404761Y-110857142D01*
X109452380Y-111000000D01*
X109452380Y-111238095D01*
X108452380Y-110333333D02*
X108452380Y-109666666D01*
X109452380Y-110095238D01*
X101761904Y-117952380D02*
X101761904Y-116952380D01*
X102000000Y-116952380D01*
X102142857Y-117000000D01*
X102238095Y-117095238D01*
X102285714Y-117190476D01*
X102333333Y-117380952D01*
X102333333Y-117523809D01*
X102285714Y-117714285D01*
X102238095Y-117809523D01*
X102142857Y-117904761D01*
X102000000Y-117952380D01*
X101761904Y-117952380D01*
X103190476Y-116952380D02*
X103000000Y-116952380D01*
X102904761Y-117000000D01*
X102857142Y-117047619D01*
X102761904Y-117190476D01*
X102714285Y-117380952D01*
X102714285Y-117761904D01*
X102761904Y-117857142D01*
X102809523Y-117904761D01*
X102904761Y-117952380D01*
X103095238Y-117952380D01*
X103190476Y-117904761D01*
X103238095Y-117857142D01*
X103285714Y-117761904D01*
X103285714Y-117523809D01*
X103238095Y-117428571D01*
X103190476Y-117380952D01*
X103095238Y-117333333D01*
X102904761Y-117333333D01*
X102809523Y-117380952D01*
X102761904Y-117428571D01*
X102714285Y-117523809D01*
X98761904Y-117952380D02*
X98761904Y-116952380D01*
X99000000Y-116952380D01*
X99142857Y-117000000D01*
X99238095Y-117095238D01*
X99285714Y-117190476D01*
X99333333Y-117380952D01*
X99333333Y-117523809D01*
X99285714Y-117714285D01*
X99238095Y-117809523D01*
X99142857Y-117904761D01*
X99000000Y-117952380D01*
X98761904Y-117952380D01*
X100238095Y-116952380D02*
X99761904Y-116952380D01*
X99714285Y-117428571D01*
X99761904Y-117380952D01*
X99857142Y-117333333D01*
X100095238Y-117333333D01*
X100190476Y-117380952D01*
X100238095Y-117428571D01*
X100285714Y-117523809D01*
X100285714Y-117761904D01*
X100238095Y-117857142D01*
X100190476Y-117904761D01*
X100095238Y-117952380D01*
X99857142Y-117952380D01*
X99761904Y-117904761D01*
X99714285Y-117857142D01*
X95761904Y-117952380D02*
X95761904Y-116952380D01*
X96000000Y-116952380D01*
X96142857Y-117000000D01*
X96238095Y-117095238D01*
X96285714Y-117190476D01*
X96333333Y-117380952D01*
X96333333Y-117523809D01*
X96285714Y-117714285D01*
X96238095Y-117809523D01*
X96142857Y-117904761D01*
X96000000Y-117952380D01*
X95761904Y-117952380D01*
X97190476Y-117285714D02*
X97190476Y-117952380D01*
X96952380Y-116904761D02*
X96714285Y-117619047D01*
X97333333Y-117619047D01*
X92761904Y-117952380D02*
X92761904Y-116952380D01*
X93000000Y-116952380D01*
X93142857Y-117000000D01*
X93238095Y-117095238D01*
X93285714Y-117190476D01*
X93333333Y-117380952D01*
X93333333Y-117523809D01*
X93285714Y-117714285D01*
X93238095Y-117809523D01*
X93142857Y-117904761D01*
X93000000Y-117952380D01*
X92761904Y-117952380D01*
X93666666Y-116952380D02*
X94285714Y-116952380D01*
X93952380Y-117333333D01*
X94095238Y-117333333D01*
X94190476Y-117380952D01*
X94238095Y-117428571D01*
X94285714Y-117523809D01*
X94285714Y-117761904D01*
X94238095Y-117857142D01*
X94190476Y-117904761D01*
X94095238Y-117952380D01*
X93809523Y-117952380D01*
X93714285Y-117904761D01*
X93666666Y-117857142D01*
X87452380Y-111238095D02*
X86452380Y-111238095D01*
X86452380Y-111000000D01*
X86500000Y-110857142D01*
X86595238Y-110761904D01*
X86690476Y-110714285D01*
X86880952Y-110666666D01*
X87023809Y-110666666D01*
X87214285Y-110714285D01*
X87309523Y-110761904D01*
X87404761Y-110857142D01*
X87452380Y-111000000D01*
X87452380Y-111238095D01*
X86547619Y-110285714D02*
X86500000Y-110238095D01*
X86452380Y-110142857D01*
X86452380Y-109904761D01*
X86500000Y-109809523D01*
X86547619Y-109761904D01*
X86642857Y-109714285D01*
X86738095Y-109714285D01*
X86880952Y-109761904D01*
X87452380Y-110333333D01*
X87452380Y-109714285D01*
X87452380Y-108238095D02*
X86452380Y-108238095D01*
X86452380Y-108000000D01*
X86500000Y-107857142D01*
X86595238Y-107761904D01*
X86690476Y-107714285D01*
X86880952Y-107666666D01*
X87023809Y-107666666D01*
X87214285Y-107714285D01*
X87309523Y-107761904D01*
X87404761Y-107857142D01*
X87452380Y-108000000D01*
X87452380Y-108238095D01*
X87452380Y-106714285D02*
X87452380Y-107285714D01*
X87452380Y-107000000D02*
X86452380Y-107000000D01*
X86595238Y-107095238D01*
X86690476Y-107190476D01*
X86738095Y-107285714D01*
X87384687Y-95620389D02*
X87384687Y-95687732D01*
X87317343Y-95822419D01*
X87250000Y-95889763D01*
X87115312Y-95957106D01*
X86980625Y-95957106D01*
X86879610Y-95923435D01*
X86711251Y-95822419D01*
X86610236Y-95721404D01*
X86509221Y-95553045D01*
X86475549Y-95452030D01*
X86475549Y-95317343D01*
X86542893Y-95182656D01*
X86610236Y-95115312D01*
X86744923Y-95047969D01*
X86812267Y-95047969D01*
X87586717Y-94610236D02*
X88058122Y-95081641D01*
X87148984Y-94509221D02*
X87485702Y-95182656D01*
X87923435Y-94744923D01*
X105333333Y-95357142D02*
X105285714Y-95404761D01*
X105142857Y-95452380D01*
X105047619Y-95452380D01*
X104904761Y-95404761D01*
X104809523Y-95309523D01*
X104761904Y-95214285D01*
X104714285Y-95023809D01*
X104714285Y-94880952D01*
X104761904Y-94690476D01*
X104809523Y-94595238D01*
X104904761Y-94500000D01*
X105047619Y-94452380D01*
X105142857Y-94452380D01*
X105285714Y-94500000D01*
X105333333Y-94547619D01*
X105666666Y-94452380D02*
X106285714Y-94452380D01*
X105952380Y-94833333D01*
X106095238Y-94833333D01*
X106190476Y-94880952D01*
X106238095Y-94928571D01*
X106285714Y-95023809D01*
X106285714Y-95261904D01*
X106238095Y-95357142D01*
X106190476Y-95404761D01*
X106095238Y-95452380D01*
X105809523Y-95452380D01*
X105714285Y-95404761D01*
X105666666Y-95357142D01*
M02*
