M48
; DRILL file {KiCad (5.1.2)-2} date 12.06.2019 22:46:02
; FORMAT={-:-/ absolute / inch / decimal}
; #@! TF.CreationDate,2019-06-12T22:46:02+02:00
; #@! TF.GenerationSoftware,Kicad,Pcbnew,(5.1.2)-2
; #@! TF.FileFunction,Plated,1,2,PTH
FMAT,2
INCH
T1C0.0118
T2C0.0157
T3C0.0236
T4C0.0394
%
G90
G05
T1
X3.7795Y-4.0945
X3.7795Y-4.1339
X3.7795Y-4.1732
X3.7795Y-4.2126
X3.7795Y-4.252
X3.8189Y-4.0945
X3.8189Y-4.1339
X3.8189Y-4.1732
X3.8189Y-4.2126
X3.8189Y-4.252
X3.8583Y-4.0945
X3.8583Y-4.1339
X3.8583Y-4.1732
X3.8583Y-4.2126
X3.8583Y-4.252
X3.8976Y-4.0945
X3.8976Y-4.1339
X3.8976Y-4.1732
X3.8976Y-4.2126
X3.8976Y-4.252
X3.937Y-4.0945
X3.937Y-4.1339
X3.937Y-4.1732
X3.937Y-4.2126
X3.937Y-4.252
T2
X3.6122Y-3.9272
X3.6417Y-3.9567
X3.6713Y-3.9862
X4.065Y-3.9862
X4.1535Y-3.7795
T3
X4.0531Y-4.624
X4.2126Y-4.626
T4
X3.5039Y-3.5827
X3.6039Y-3.5827
X3.7039Y-3.5827
X3.8039Y-3.5827
X3.9039Y-3.5827
X4.0039Y-3.5827
X4.1039Y-3.5827
X4.2039Y-3.5827
X3.5039Y-4.7638
X3.6039Y-4.7638
X3.7039Y-4.7638
X3.8039Y-4.7638
X3.9039Y-4.7638
X4.0039Y-4.7638
X4.1039Y-4.7638
X4.2039Y-4.7638
T0
M30
