G04 #@! TF.GenerationSoftware,KiCad,Pcbnew,(5.1.2)-2*
G04 #@! TF.CreationDate,2019-06-12T22:46:05+02:00*
G04 #@! TF.ProjectId,TLC5954-Eval,544c4335-3935-4342-9d45-76616c2e6b69,rev?*
G04 #@! TF.SameCoordinates,Original*
G04 #@! TF.FileFunction,Soldermask,Top*
G04 #@! TF.FilePolarity,Negative*
%FSLAX46Y46*%
G04 Gerber Fmt 4.6, Leading zero omitted, Abs format (unit mm)*
G04 Created by KiCad (PCBNEW (5.1.2)-2) date 2019-06-12 22:46:05*
%MOMM*%
%LPD*%
G04 APERTURE LIST*
%ADD10C,0.100000*%
G04 APERTURE END LIST*
D10*
G36*
X106956431Y-120113023D02*
G01*
X107081939Y-120151096D01*
X107126085Y-120164487D01*
X107282431Y-120248056D01*
X107419475Y-120360525D01*
X107531944Y-120497569D01*
X107615513Y-120653915D01*
X107615514Y-120653919D01*
X107666977Y-120823569D01*
X107684354Y-121000000D01*
X107666977Y-121176431D01*
X107628904Y-121301939D01*
X107615513Y-121346085D01*
X107531944Y-121502431D01*
X107419475Y-121639475D01*
X107282431Y-121751944D01*
X107126085Y-121835513D01*
X107081939Y-121848904D01*
X106956431Y-121886977D01*
X106824207Y-121900000D01*
X106735793Y-121900000D01*
X106603569Y-121886977D01*
X106478061Y-121848904D01*
X106433915Y-121835513D01*
X106277569Y-121751944D01*
X106140525Y-121639475D01*
X106028056Y-121502431D01*
X105944487Y-121346085D01*
X105931096Y-121301939D01*
X105893023Y-121176431D01*
X105875646Y-121000000D01*
X105893023Y-120823569D01*
X105944486Y-120653919D01*
X105944487Y-120653915D01*
X106028056Y-120497569D01*
X106140525Y-120360525D01*
X106277569Y-120248056D01*
X106433915Y-120164487D01*
X106478061Y-120151096D01*
X106603569Y-120113023D01*
X106735793Y-120100000D01*
X106824207Y-120100000D01*
X106956431Y-120113023D01*
X106956431Y-120113023D01*
G37*
G36*
X104416431Y-120113023D02*
G01*
X104541939Y-120151096D01*
X104586085Y-120164487D01*
X104742431Y-120248056D01*
X104879475Y-120360525D01*
X104991944Y-120497569D01*
X105075513Y-120653915D01*
X105075514Y-120653919D01*
X105126977Y-120823569D01*
X105144354Y-121000000D01*
X105126977Y-121176431D01*
X105088904Y-121301939D01*
X105075513Y-121346085D01*
X104991944Y-121502431D01*
X104879475Y-121639475D01*
X104742431Y-121751944D01*
X104586085Y-121835513D01*
X104541939Y-121848904D01*
X104416431Y-121886977D01*
X104284207Y-121900000D01*
X104195793Y-121900000D01*
X104063569Y-121886977D01*
X103938061Y-121848904D01*
X103893915Y-121835513D01*
X103737569Y-121751944D01*
X103600525Y-121639475D01*
X103488056Y-121502431D01*
X103404487Y-121346085D01*
X103391096Y-121301939D01*
X103353023Y-121176431D01*
X103335646Y-121000000D01*
X103353023Y-120823569D01*
X103404486Y-120653919D01*
X103404487Y-120653915D01*
X103488056Y-120497569D01*
X103600525Y-120360525D01*
X103737569Y-120248056D01*
X103893915Y-120164487D01*
X103938061Y-120151096D01*
X104063569Y-120113023D01*
X104195793Y-120100000D01*
X104284207Y-120100000D01*
X104416431Y-120113023D01*
X104416431Y-120113023D01*
G37*
G36*
X89900000Y-121900000D02*
G01*
X88100000Y-121900000D01*
X88100000Y-120100000D01*
X89900000Y-120100000D01*
X89900000Y-121900000D01*
X89900000Y-121900000D01*
G37*
G36*
X91716431Y-120113023D02*
G01*
X91841939Y-120151096D01*
X91886085Y-120164487D01*
X92042431Y-120248056D01*
X92179475Y-120360525D01*
X92291944Y-120497569D01*
X92375513Y-120653915D01*
X92375514Y-120653919D01*
X92426977Y-120823569D01*
X92444354Y-121000000D01*
X92426977Y-121176431D01*
X92388904Y-121301939D01*
X92375513Y-121346085D01*
X92291944Y-121502431D01*
X92179475Y-121639475D01*
X92042431Y-121751944D01*
X91886085Y-121835513D01*
X91841939Y-121848904D01*
X91716431Y-121886977D01*
X91584207Y-121900000D01*
X91495793Y-121900000D01*
X91363569Y-121886977D01*
X91238061Y-121848904D01*
X91193915Y-121835513D01*
X91037569Y-121751944D01*
X90900525Y-121639475D01*
X90788056Y-121502431D01*
X90704487Y-121346085D01*
X90691096Y-121301939D01*
X90653023Y-121176431D01*
X90635646Y-121000000D01*
X90653023Y-120823569D01*
X90704486Y-120653919D01*
X90704487Y-120653915D01*
X90788056Y-120497569D01*
X90900525Y-120360525D01*
X91037569Y-120248056D01*
X91193915Y-120164487D01*
X91238061Y-120151096D01*
X91363569Y-120113023D01*
X91495793Y-120100000D01*
X91584207Y-120100000D01*
X91716431Y-120113023D01*
X91716431Y-120113023D01*
G37*
G36*
X94256431Y-120113023D02*
G01*
X94381939Y-120151096D01*
X94426085Y-120164487D01*
X94582431Y-120248056D01*
X94719475Y-120360525D01*
X94831944Y-120497569D01*
X94915513Y-120653915D01*
X94915514Y-120653919D01*
X94966977Y-120823569D01*
X94984354Y-121000000D01*
X94966977Y-121176431D01*
X94928904Y-121301939D01*
X94915513Y-121346085D01*
X94831944Y-121502431D01*
X94719475Y-121639475D01*
X94582431Y-121751944D01*
X94426085Y-121835513D01*
X94381939Y-121848904D01*
X94256431Y-121886977D01*
X94124207Y-121900000D01*
X94035793Y-121900000D01*
X93903569Y-121886977D01*
X93778061Y-121848904D01*
X93733915Y-121835513D01*
X93577569Y-121751944D01*
X93440525Y-121639475D01*
X93328056Y-121502431D01*
X93244487Y-121346085D01*
X93231096Y-121301939D01*
X93193023Y-121176431D01*
X93175646Y-121000000D01*
X93193023Y-120823569D01*
X93244486Y-120653919D01*
X93244487Y-120653915D01*
X93328056Y-120497569D01*
X93440525Y-120360525D01*
X93577569Y-120248056D01*
X93733915Y-120164487D01*
X93778061Y-120151096D01*
X93903569Y-120113023D01*
X94035793Y-120100000D01*
X94124207Y-120100000D01*
X94256431Y-120113023D01*
X94256431Y-120113023D01*
G37*
G36*
X99336431Y-120113023D02*
G01*
X99461939Y-120151096D01*
X99506085Y-120164487D01*
X99662431Y-120248056D01*
X99799475Y-120360525D01*
X99911944Y-120497569D01*
X99995513Y-120653915D01*
X99995514Y-120653919D01*
X100046977Y-120823569D01*
X100064354Y-121000000D01*
X100046977Y-121176431D01*
X100008904Y-121301939D01*
X99995513Y-121346085D01*
X99911944Y-121502431D01*
X99799475Y-121639475D01*
X99662431Y-121751944D01*
X99506085Y-121835513D01*
X99461939Y-121848904D01*
X99336431Y-121886977D01*
X99204207Y-121900000D01*
X99115793Y-121900000D01*
X98983569Y-121886977D01*
X98858061Y-121848904D01*
X98813915Y-121835513D01*
X98657569Y-121751944D01*
X98520525Y-121639475D01*
X98408056Y-121502431D01*
X98324487Y-121346085D01*
X98311096Y-121301939D01*
X98273023Y-121176431D01*
X98255646Y-121000000D01*
X98273023Y-120823569D01*
X98324486Y-120653919D01*
X98324487Y-120653915D01*
X98408056Y-120497569D01*
X98520525Y-120360525D01*
X98657569Y-120248056D01*
X98813915Y-120164487D01*
X98858061Y-120151096D01*
X98983569Y-120113023D01*
X99115793Y-120100000D01*
X99204207Y-120100000D01*
X99336431Y-120113023D01*
X99336431Y-120113023D01*
G37*
G36*
X101876431Y-120113023D02*
G01*
X102001939Y-120151096D01*
X102046085Y-120164487D01*
X102202431Y-120248056D01*
X102339475Y-120360525D01*
X102451944Y-120497569D01*
X102535513Y-120653915D01*
X102535514Y-120653919D01*
X102586977Y-120823569D01*
X102604354Y-121000000D01*
X102586977Y-121176431D01*
X102548904Y-121301939D01*
X102535513Y-121346085D01*
X102451944Y-121502431D01*
X102339475Y-121639475D01*
X102202431Y-121751944D01*
X102046085Y-121835513D01*
X102001939Y-121848904D01*
X101876431Y-121886977D01*
X101744207Y-121900000D01*
X101655793Y-121900000D01*
X101523569Y-121886977D01*
X101398061Y-121848904D01*
X101353915Y-121835513D01*
X101197569Y-121751944D01*
X101060525Y-121639475D01*
X100948056Y-121502431D01*
X100864487Y-121346085D01*
X100851096Y-121301939D01*
X100813023Y-121176431D01*
X100795646Y-121000000D01*
X100813023Y-120823569D01*
X100864486Y-120653919D01*
X100864487Y-120653915D01*
X100948056Y-120497569D01*
X101060525Y-120360525D01*
X101197569Y-120248056D01*
X101353915Y-120164487D01*
X101398061Y-120151096D01*
X101523569Y-120113023D01*
X101655793Y-120100000D01*
X101744207Y-120100000D01*
X101876431Y-120113023D01*
X101876431Y-120113023D01*
G37*
G36*
X96796431Y-120113023D02*
G01*
X96921939Y-120151096D01*
X96966085Y-120164487D01*
X97122431Y-120248056D01*
X97259475Y-120360525D01*
X97371944Y-120497569D01*
X97455513Y-120653915D01*
X97455514Y-120653919D01*
X97506977Y-120823569D01*
X97524354Y-121000000D01*
X97506977Y-121176431D01*
X97468904Y-121301939D01*
X97455513Y-121346085D01*
X97371944Y-121502431D01*
X97259475Y-121639475D01*
X97122431Y-121751944D01*
X96966085Y-121835513D01*
X96921939Y-121848904D01*
X96796431Y-121886977D01*
X96664207Y-121900000D01*
X96575793Y-121900000D01*
X96443569Y-121886977D01*
X96318061Y-121848904D01*
X96273915Y-121835513D01*
X96117569Y-121751944D01*
X95980525Y-121639475D01*
X95868056Y-121502431D01*
X95784487Y-121346085D01*
X95771096Y-121301939D01*
X95733023Y-121176431D01*
X95715646Y-121000000D01*
X95733023Y-120823569D01*
X95784486Y-120653919D01*
X95784487Y-120653915D01*
X95868056Y-120497569D01*
X95980525Y-120360525D01*
X96117569Y-120248056D01*
X96273915Y-120164487D01*
X96318061Y-120151096D01*
X96443569Y-120113023D01*
X96575793Y-120100000D01*
X96664207Y-120100000D01*
X96796431Y-120113023D01*
X96796431Y-120113023D01*
G37*
G36*
X93400000Y-116300000D02*
G01*
X92500000Y-116300000D01*
X92500000Y-115200000D01*
X93400000Y-115200000D01*
X93400000Y-116300000D01*
X93400000Y-116300000D01*
G37*
G36*
X103500000Y-116300000D02*
G01*
X102600000Y-116300000D01*
X102600000Y-115200000D01*
X103500000Y-115200000D01*
X103500000Y-116300000D01*
X103500000Y-116300000D01*
G37*
G36*
X102400000Y-116300000D02*
G01*
X101500000Y-116300000D01*
X101500000Y-115200000D01*
X102400000Y-115200000D01*
X102400000Y-116300000D01*
X102400000Y-116300000D01*
G37*
G36*
X99400000Y-116300000D02*
G01*
X98500000Y-116300000D01*
X98500000Y-115200000D01*
X99400000Y-115200000D01*
X99400000Y-116300000D01*
X99400000Y-116300000D01*
G37*
G36*
X94500000Y-116300000D02*
G01*
X93600000Y-116300000D01*
X93600000Y-115200000D01*
X94500000Y-115200000D01*
X94500000Y-116300000D01*
X94500000Y-116300000D01*
G37*
G36*
X97500000Y-116300000D02*
G01*
X96600000Y-116300000D01*
X96600000Y-115200000D01*
X97500000Y-115200000D01*
X97500000Y-116300000D01*
X97500000Y-116300000D01*
G37*
G36*
X100500000Y-116300000D02*
G01*
X99600000Y-116300000D01*
X99600000Y-115200000D01*
X100500000Y-115200000D01*
X100500000Y-116300000D01*
X100500000Y-116300000D01*
G37*
G36*
X96400000Y-116300000D02*
G01*
X95500000Y-116300000D01*
X95500000Y-115200000D01*
X96400000Y-115200000D01*
X96400000Y-116300000D01*
X96400000Y-116300000D01*
G37*
G36*
X94500000Y-114800000D02*
G01*
X93600000Y-114800000D01*
X93600000Y-113700000D01*
X94500000Y-113700000D01*
X94500000Y-114800000D01*
X94500000Y-114800000D01*
G37*
G36*
X96400000Y-114800000D02*
G01*
X95500000Y-114800000D01*
X95500000Y-113700000D01*
X96400000Y-113700000D01*
X96400000Y-114800000D01*
X96400000Y-114800000D01*
G37*
G36*
X97500000Y-114800000D02*
G01*
X96600000Y-114800000D01*
X96600000Y-113700000D01*
X97500000Y-113700000D01*
X97500000Y-114800000D01*
X97500000Y-114800000D01*
G37*
G36*
X93400000Y-114800000D02*
G01*
X92500000Y-114800000D01*
X92500000Y-113700000D01*
X93400000Y-113700000D01*
X93400000Y-114800000D01*
X93400000Y-114800000D01*
G37*
G36*
X99400000Y-114800000D02*
G01*
X98500000Y-114800000D01*
X98500000Y-113700000D01*
X99400000Y-113700000D01*
X99400000Y-114800000D01*
X99400000Y-114800000D01*
G37*
G36*
X103500000Y-114800000D02*
G01*
X102600000Y-114800000D01*
X102600000Y-113700000D01*
X103500000Y-113700000D01*
X103500000Y-114800000D01*
X103500000Y-114800000D01*
G37*
G36*
X102400000Y-114800000D02*
G01*
X101500000Y-114800000D01*
X101500000Y-113700000D01*
X102400000Y-113700000D01*
X102400000Y-114800000D01*
X102400000Y-114800000D01*
G37*
G36*
X100500000Y-114800000D02*
G01*
X99600000Y-114800000D01*
X99600000Y-113700000D01*
X100500000Y-113700000D01*
X100500000Y-114800000D01*
X100500000Y-114800000D01*
G37*
G36*
X89300000Y-111500000D02*
G01*
X88200000Y-111500000D01*
X88200000Y-110600000D01*
X89300000Y-110600000D01*
X89300000Y-111500000D01*
X89300000Y-111500000D01*
G37*
G36*
X106300000Y-111500000D02*
G01*
X105200000Y-111500000D01*
X105200000Y-110600000D01*
X106300000Y-110600000D01*
X106300000Y-111500000D01*
X106300000Y-111500000D01*
G37*
G36*
X107800000Y-111500000D02*
G01*
X106700000Y-111500000D01*
X106700000Y-110600000D01*
X107800000Y-110600000D01*
X107800000Y-111500000D01*
X107800000Y-111500000D01*
G37*
G36*
X90800000Y-111500000D02*
G01*
X89700000Y-111500000D01*
X89700000Y-110600000D01*
X90800000Y-110600000D01*
X90800000Y-111500000D01*
X90800000Y-111500000D01*
G37*
G36*
X97884683Y-109451317D02*
G01*
X97893995Y-109454142D01*
X97902583Y-109458732D01*
X97910099Y-109464901D01*
X97916268Y-109472417D01*
X97920858Y-109481005D01*
X97923683Y-109490317D01*
X97925000Y-109503687D01*
X97925000Y-110371313D01*
X97923683Y-110384683D01*
X97920858Y-110393995D01*
X97916268Y-110402583D01*
X97910099Y-110410099D01*
X97902583Y-110416268D01*
X97893995Y-110420858D01*
X97884683Y-110423683D01*
X97871313Y-110425000D01*
X97628687Y-110425000D01*
X97615317Y-110423683D01*
X97606005Y-110420858D01*
X97597417Y-110416268D01*
X97589901Y-110410099D01*
X97583732Y-110402583D01*
X97579142Y-110393995D01*
X97576317Y-110384683D01*
X97575000Y-110371313D01*
X97575000Y-109503687D01*
X97576317Y-109490317D01*
X97579142Y-109481005D01*
X97583732Y-109472417D01*
X97589901Y-109464901D01*
X97597417Y-109458732D01*
X97606005Y-109454142D01*
X97615317Y-109451317D01*
X97628687Y-109450000D01*
X97871313Y-109450000D01*
X97884683Y-109451317D01*
X97884683Y-109451317D01*
G37*
G36*
X95384683Y-109451317D02*
G01*
X95393995Y-109454142D01*
X95402583Y-109458732D01*
X95410099Y-109464901D01*
X95416268Y-109472417D01*
X95420858Y-109481005D01*
X95423683Y-109490317D01*
X95425000Y-109503687D01*
X95425000Y-110371313D01*
X95423683Y-110384683D01*
X95420858Y-110393995D01*
X95416268Y-110402583D01*
X95410099Y-110410099D01*
X95402583Y-110416268D01*
X95393995Y-110420858D01*
X95384683Y-110423683D01*
X95371313Y-110425000D01*
X95128687Y-110425000D01*
X95115317Y-110423683D01*
X95106005Y-110420858D01*
X95097417Y-110416268D01*
X95089901Y-110410099D01*
X95083732Y-110402583D01*
X95079142Y-110393995D01*
X95076317Y-110384683D01*
X95075000Y-110371313D01*
X95075000Y-109503687D01*
X95076317Y-109490317D01*
X95079142Y-109481005D01*
X95083732Y-109472417D01*
X95089901Y-109464901D01*
X95097417Y-109458732D01*
X95106005Y-109454142D01*
X95115317Y-109451317D01*
X95128687Y-109450000D01*
X95371313Y-109450000D01*
X95384683Y-109451317D01*
X95384683Y-109451317D01*
G37*
G36*
X95884683Y-109451317D02*
G01*
X95893995Y-109454142D01*
X95902583Y-109458732D01*
X95910099Y-109464901D01*
X95916268Y-109472417D01*
X95920858Y-109481005D01*
X95923683Y-109490317D01*
X95925000Y-109503687D01*
X95925000Y-110371313D01*
X95923683Y-110384683D01*
X95920858Y-110393995D01*
X95916268Y-110402583D01*
X95910099Y-110410099D01*
X95902583Y-110416268D01*
X95893995Y-110420858D01*
X95884683Y-110423683D01*
X95871313Y-110425000D01*
X95628687Y-110425000D01*
X95615317Y-110423683D01*
X95606005Y-110420858D01*
X95597417Y-110416268D01*
X95589901Y-110410099D01*
X95583732Y-110402583D01*
X95579142Y-110393995D01*
X95576317Y-110384683D01*
X95575000Y-110371313D01*
X95575000Y-109503687D01*
X95576317Y-109490317D01*
X95579142Y-109481005D01*
X95583732Y-109472417D01*
X95589901Y-109464901D01*
X95597417Y-109458732D01*
X95606005Y-109454142D01*
X95615317Y-109451317D01*
X95628687Y-109450000D01*
X95871313Y-109450000D01*
X95884683Y-109451317D01*
X95884683Y-109451317D01*
G37*
G36*
X96384683Y-109451317D02*
G01*
X96393995Y-109454142D01*
X96402583Y-109458732D01*
X96410099Y-109464901D01*
X96416268Y-109472417D01*
X96420858Y-109481005D01*
X96423683Y-109490317D01*
X96425000Y-109503687D01*
X96425000Y-110371313D01*
X96423683Y-110384683D01*
X96420858Y-110393995D01*
X96416268Y-110402583D01*
X96410099Y-110410099D01*
X96402583Y-110416268D01*
X96393995Y-110420858D01*
X96384683Y-110423683D01*
X96371313Y-110425000D01*
X96128687Y-110425000D01*
X96115317Y-110423683D01*
X96106005Y-110420858D01*
X96097417Y-110416268D01*
X96089901Y-110410099D01*
X96083732Y-110402583D01*
X96079142Y-110393995D01*
X96076317Y-110384683D01*
X96075000Y-110371313D01*
X96075000Y-109503687D01*
X96076317Y-109490317D01*
X96079142Y-109481005D01*
X96083732Y-109472417D01*
X96089901Y-109464901D01*
X96097417Y-109458732D01*
X96106005Y-109454142D01*
X96115317Y-109451317D01*
X96128687Y-109450000D01*
X96371313Y-109450000D01*
X96384683Y-109451317D01*
X96384683Y-109451317D01*
G37*
G36*
X96884683Y-109451317D02*
G01*
X96893995Y-109454142D01*
X96902583Y-109458732D01*
X96910099Y-109464901D01*
X96916268Y-109472417D01*
X96920858Y-109481005D01*
X96923683Y-109490317D01*
X96925000Y-109503687D01*
X96925000Y-110371313D01*
X96923683Y-110384683D01*
X96920858Y-110393995D01*
X96916268Y-110402583D01*
X96910099Y-110410099D01*
X96902583Y-110416268D01*
X96893995Y-110420858D01*
X96884683Y-110423683D01*
X96871313Y-110425000D01*
X96628687Y-110425000D01*
X96615317Y-110423683D01*
X96606005Y-110420858D01*
X96597417Y-110416268D01*
X96589901Y-110410099D01*
X96583732Y-110402583D01*
X96579142Y-110393995D01*
X96576317Y-110384683D01*
X96575000Y-110371313D01*
X96575000Y-109503687D01*
X96576317Y-109490317D01*
X96579142Y-109481005D01*
X96583732Y-109472417D01*
X96589901Y-109464901D01*
X96597417Y-109458732D01*
X96606005Y-109454142D01*
X96615317Y-109451317D01*
X96628687Y-109450000D01*
X96871313Y-109450000D01*
X96884683Y-109451317D01*
X96884683Y-109451317D01*
G37*
G36*
X97384683Y-109451317D02*
G01*
X97393995Y-109454142D01*
X97402583Y-109458732D01*
X97410099Y-109464901D01*
X97416268Y-109472417D01*
X97420858Y-109481005D01*
X97423683Y-109490317D01*
X97425000Y-109503687D01*
X97425000Y-110371313D01*
X97423683Y-110384683D01*
X97420858Y-110393995D01*
X97416268Y-110402583D01*
X97410099Y-110410099D01*
X97402583Y-110416268D01*
X97393995Y-110420858D01*
X97384683Y-110423683D01*
X97371313Y-110425000D01*
X97128687Y-110425000D01*
X97115317Y-110423683D01*
X97106005Y-110420858D01*
X97097417Y-110416268D01*
X97089901Y-110410099D01*
X97083732Y-110402583D01*
X97079142Y-110393995D01*
X97076317Y-110384683D01*
X97075000Y-110371313D01*
X97075000Y-109503687D01*
X97076317Y-109490317D01*
X97079142Y-109481005D01*
X97083732Y-109472417D01*
X97089901Y-109464901D01*
X97097417Y-109458732D01*
X97106005Y-109454142D01*
X97115317Y-109451317D01*
X97128687Y-109450000D01*
X97371313Y-109450000D01*
X97384683Y-109451317D01*
X97384683Y-109451317D01*
G37*
G36*
X98384683Y-109451317D02*
G01*
X98393995Y-109454142D01*
X98402583Y-109458732D01*
X98410099Y-109464901D01*
X98416268Y-109472417D01*
X98420858Y-109481005D01*
X98423683Y-109490317D01*
X98425000Y-109503687D01*
X98425000Y-110371313D01*
X98423683Y-110384683D01*
X98420858Y-110393995D01*
X98416268Y-110402583D01*
X98410099Y-110410099D01*
X98402583Y-110416268D01*
X98393995Y-110420858D01*
X98384683Y-110423683D01*
X98371313Y-110425000D01*
X98128687Y-110425000D01*
X98115317Y-110423683D01*
X98106005Y-110420858D01*
X98097417Y-110416268D01*
X98089901Y-110410099D01*
X98083732Y-110402583D01*
X98079142Y-110393995D01*
X98076317Y-110384683D01*
X98075000Y-110371313D01*
X98075000Y-109503687D01*
X98076317Y-109490317D01*
X98079142Y-109481005D01*
X98083732Y-109472417D01*
X98089901Y-109464901D01*
X98097417Y-109458732D01*
X98106005Y-109454142D01*
X98115317Y-109451317D01*
X98128687Y-109450000D01*
X98371313Y-109450000D01*
X98384683Y-109451317D01*
X98384683Y-109451317D01*
G37*
G36*
X99384683Y-109451317D02*
G01*
X99393995Y-109454142D01*
X99402583Y-109458732D01*
X99410099Y-109464901D01*
X99416268Y-109472417D01*
X99420858Y-109481005D01*
X99423683Y-109490317D01*
X99425000Y-109503687D01*
X99425000Y-110371313D01*
X99423683Y-110384683D01*
X99420858Y-110393995D01*
X99416268Y-110402583D01*
X99410099Y-110410099D01*
X99402583Y-110416268D01*
X99393995Y-110420858D01*
X99384683Y-110423683D01*
X99371313Y-110425000D01*
X99128687Y-110425000D01*
X99115317Y-110423683D01*
X99106005Y-110420858D01*
X99097417Y-110416268D01*
X99089901Y-110410099D01*
X99083732Y-110402583D01*
X99079142Y-110393995D01*
X99076317Y-110384683D01*
X99075000Y-110371313D01*
X99075000Y-109503687D01*
X99076317Y-109490317D01*
X99079142Y-109481005D01*
X99083732Y-109472417D01*
X99089901Y-109464901D01*
X99097417Y-109458732D01*
X99106005Y-109454142D01*
X99115317Y-109451317D01*
X99128687Y-109450000D01*
X99371313Y-109450000D01*
X99384683Y-109451317D01*
X99384683Y-109451317D01*
G37*
G36*
X99884683Y-109451317D02*
G01*
X99893995Y-109454142D01*
X99902583Y-109458732D01*
X99910099Y-109464901D01*
X99916268Y-109472417D01*
X99920858Y-109481005D01*
X99923683Y-109490317D01*
X99925000Y-109503687D01*
X99925000Y-110371313D01*
X99923683Y-110384683D01*
X99920858Y-110393995D01*
X99916268Y-110402583D01*
X99910099Y-110410099D01*
X99902583Y-110416268D01*
X99893995Y-110420858D01*
X99884683Y-110423683D01*
X99871313Y-110425000D01*
X99628687Y-110425000D01*
X99615317Y-110423683D01*
X99606005Y-110420858D01*
X99597417Y-110416268D01*
X99589901Y-110410099D01*
X99583732Y-110402583D01*
X99579142Y-110393995D01*
X99576317Y-110384683D01*
X99575000Y-110371313D01*
X99575000Y-109503687D01*
X99576317Y-109490317D01*
X99579142Y-109481005D01*
X99583732Y-109472417D01*
X99589901Y-109464901D01*
X99597417Y-109458732D01*
X99606005Y-109454142D01*
X99615317Y-109451317D01*
X99628687Y-109450000D01*
X99871313Y-109450000D01*
X99884683Y-109451317D01*
X99884683Y-109451317D01*
G37*
G36*
X100384683Y-109451317D02*
G01*
X100393995Y-109454142D01*
X100402583Y-109458732D01*
X100410099Y-109464901D01*
X100416268Y-109472417D01*
X100420858Y-109481005D01*
X100423683Y-109490317D01*
X100425000Y-109503687D01*
X100425000Y-110371313D01*
X100423683Y-110384683D01*
X100420858Y-110393995D01*
X100416268Y-110402583D01*
X100410099Y-110410099D01*
X100402583Y-110416268D01*
X100393995Y-110420858D01*
X100384683Y-110423683D01*
X100371313Y-110425000D01*
X100128687Y-110425000D01*
X100115317Y-110423683D01*
X100106005Y-110420858D01*
X100097417Y-110416268D01*
X100089901Y-110410099D01*
X100083732Y-110402583D01*
X100079142Y-110393995D01*
X100076317Y-110384683D01*
X100075000Y-110371313D01*
X100075000Y-109503687D01*
X100076317Y-109490317D01*
X100079142Y-109481005D01*
X100083732Y-109472417D01*
X100089901Y-109464901D01*
X100097417Y-109458732D01*
X100106005Y-109454142D01*
X100115317Y-109451317D01*
X100128687Y-109450000D01*
X100371313Y-109450000D01*
X100384683Y-109451317D01*
X100384683Y-109451317D01*
G37*
G36*
X100884683Y-109451317D02*
G01*
X100893995Y-109454142D01*
X100902583Y-109458732D01*
X100910099Y-109464901D01*
X100916268Y-109472417D01*
X100920858Y-109481005D01*
X100923683Y-109490317D01*
X100925000Y-109503687D01*
X100925000Y-110371313D01*
X100923683Y-110384683D01*
X100920858Y-110393995D01*
X100916268Y-110402583D01*
X100910099Y-110410099D01*
X100902583Y-110416268D01*
X100893995Y-110420858D01*
X100884683Y-110423683D01*
X100871313Y-110425000D01*
X100628687Y-110425000D01*
X100615317Y-110423683D01*
X100606005Y-110420858D01*
X100597417Y-110416268D01*
X100589901Y-110410099D01*
X100583732Y-110402583D01*
X100579142Y-110393995D01*
X100576317Y-110384683D01*
X100575000Y-110371313D01*
X100575000Y-109503687D01*
X100576317Y-109490317D01*
X100579142Y-109481005D01*
X100583732Y-109472417D01*
X100589901Y-109464901D01*
X100597417Y-109458732D01*
X100606005Y-109454142D01*
X100615317Y-109451317D01*
X100628687Y-109450000D01*
X100871313Y-109450000D01*
X100884683Y-109451317D01*
X100884683Y-109451317D01*
G37*
G36*
X102384683Y-109076317D02*
G01*
X102393995Y-109079142D01*
X102402583Y-109083732D01*
X102410099Y-109089901D01*
X102416268Y-109097417D01*
X102420858Y-109106005D01*
X102423683Y-109115317D01*
X102425000Y-109128687D01*
X102425000Y-109371313D01*
X102423683Y-109384683D01*
X102420858Y-109393995D01*
X102416268Y-109402583D01*
X102410099Y-109410099D01*
X102402583Y-109416268D01*
X102393995Y-109420858D01*
X102384683Y-109423683D01*
X102371313Y-109425000D01*
X101499999Y-109425000D01*
X101485367Y-109426441D01*
X101471298Y-109430709D01*
X101458332Y-109437640D01*
X101446967Y-109446967D01*
X101437640Y-109458332D01*
X101430709Y-109471298D01*
X101426441Y-109485367D01*
X101425000Y-109499999D01*
X101425000Y-110371313D01*
X101423683Y-110384683D01*
X101420858Y-110393995D01*
X101416268Y-110402583D01*
X101410099Y-110410099D01*
X101402583Y-110416268D01*
X101393995Y-110420858D01*
X101384683Y-110423683D01*
X101371313Y-110425000D01*
X101128687Y-110425000D01*
X101115317Y-110423683D01*
X101106005Y-110420858D01*
X101097417Y-110416268D01*
X101089901Y-110410099D01*
X101083732Y-110402583D01*
X101079142Y-110393995D01*
X101076317Y-110384683D01*
X101075000Y-110371313D01*
X101075000Y-109503687D01*
X101076317Y-109490317D01*
X101079142Y-109481005D01*
X101083732Y-109472417D01*
X101089901Y-109464901D01*
X101097417Y-109458732D01*
X101106005Y-109454142D01*
X101115317Y-109451317D01*
X101128687Y-109450000D01*
X101375001Y-109450000D01*
X101389633Y-109448559D01*
X101403702Y-109444291D01*
X101416668Y-109437360D01*
X101428033Y-109428033D01*
X101437360Y-109416668D01*
X101444291Y-109403702D01*
X101448559Y-109389633D01*
X101450000Y-109375001D01*
X101450000Y-109128687D01*
X101451317Y-109115317D01*
X101454142Y-109106005D01*
X101458732Y-109097417D01*
X101464901Y-109089901D01*
X101472417Y-109083732D01*
X101481005Y-109079142D01*
X101490317Y-109076317D01*
X101503687Y-109075000D01*
X102371313Y-109075000D01*
X102384683Y-109076317D01*
X102384683Y-109076317D01*
G37*
G36*
X94509683Y-109076317D02*
G01*
X94518995Y-109079142D01*
X94527583Y-109083732D01*
X94535099Y-109089901D01*
X94541268Y-109097417D01*
X94545858Y-109106005D01*
X94548683Y-109115317D01*
X94550000Y-109128687D01*
X94550000Y-109375001D01*
X94551441Y-109389633D01*
X94555709Y-109403702D01*
X94562640Y-109416668D01*
X94571967Y-109428033D01*
X94583332Y-109437360D01*
X94596298Y-109444291D01*
X94610367Y-109448559D01*
X94624999Y-109450000D01*
X94871313Y-109450000D01*
X94884683Y-109451317D01*
X94893995Y-109454142D01*
X94902583Y-109458732D01*
X94910099Y-109464901D01*
X94916268Y-109472417D01*
X94920858Y-109481005D01*
X94923683Y-109490317D01*
X94925000Y-109503687D01*
X94925000Y-110371313D01*
X94923683Y-110384683D01*
X94920858Y-110393995D01*
X94916268Y-110402583D01*
X94910099Y-110410099D01*
X94902583Y-110416268D01*
X94893995Y-110420858D01*
X94884683Y-110423683D01*
X94871313Y-110425000D01*
X94628687Y-110425000D01*
X94615317Y-110423683D01*
X94606005Y-110420858D01*
X94597417Y-110416268D01*
X94589901Y-110410099D01*
X94583732Y-110402583D01*
X94579142Y-110393995D01*
X94576317Y-110384683D01*
X94575000Y-110371313D01*
X94575000Y-109499999D01*
X94573559Y-109485367D01*
X94569291Y-109471298D01*
X94562360Y-109458332D01*
X94553033Y-109446967D01*
X94541668Y-109437640D01*
X94528702Y-109430709D01*
X94514633Y-109426441D01*
X94500001Y-109425000D01*
X93628687Y-109425000D01*
X93615317Y-109423683D01*
X93606005Y-109420858D01*
X93597417Y-109416268D01*
X93589901Y-109410099D01*
X93583732Y-109402583D01*
X93579142Y-109393995D01*
X93576317Y-109384683D01*
X93575000Y-109371313D01*
X93575000Y-109128687D01*
X93576317Y-109115317D01*
X93579142Y-109106005D01*
X93583732Y-109097417D01*
X93589901Y-109089901D01*
X93597417Y-109083732D01*
X93606005Y-109079142D01*
X93615317Y-109076317D01*
X93628687Y-109075000D01*
X94496313Y-109075000D01*
X94509683Y-109076317D01*
X94509683Y-109076317D01*
G37*
G36*
X98884683Y-109451317D02*
G01*
X98893995Y-109454142D01*
X98902583Y-109458732D01*
X98910099Y-109464901D01*
X98916268Y-109472417D01*
X98920858Y-109481005D01*
X98923683Y-109490317D01*
X98925000Y-109503687D01*
X98925000Y-110371313D01*
X98923683Y-110384683D01*
X98920858Y-110393995D01*
X98916268Y-110402583D01*
X98910099Y-110410099D01*
X98902583Y-110416268D01*
X98893995Y-110420858D01*
X98884683Y-110423683D01*
X98871313Y-110425000D01*
X98628687Y-110425000D01*
X98615317Y-110423683D01*
X98606005Y-110420858D01*
X98597417Y-110416268D01*
X98589901Y-110410099D01*
X98583732Y-110402583D01*
X98579142Y-110393995D01*
X98576317Y-110384683D01*
X98575000Y-110371313D01*
X98575000Y-109503687D01*
X98576317Y-109490317D01*
X98579142Y-109481005D01*
X98583732Y-109472417D01*
X98589901Y-109464901D01*
X98597417Y-109458732D01*
X98606005Y-109454142D01*
X98615317Y-109451317D01*
X98628687Y-109450000D01*
X98871313Y-109450000D01*
X98884683Y-109451317D01*
X98884683Y-109451317D01*
G37*
G36*
X106300000Y-110400000D02*
G01*
X105200000Y-110400000D01*
X105200000Y-109500000D01*
X106300000Y-109500000D01*
X106300000Y-110400000D01*
X106300000Y-110400000D01*
G37*
G36*
X89300000Y-110400000D02*
G01*
X88200000Y-110400000D01*
X88200000Y-109500000D01*
X89300000Y-109500000D01*
X89300000Y-110400000D01*
X89300000Y-110400000D01*
G37*
G36*
X90800000Y-110400000D02*
G01*
X89700000Y-110400000D01*
X89700000Y-109500000D01*
X90800000Y-109500000D01*
X90800000Y-110400000D01*
X90800000Y-110400000D01*
G37*
G36*
X107800000Y-110400000D02*
G01*
X106700000Y-110400000D01*
X106700000Y-109500000D01*
X107800000Y-109500000D01*
X107800000Y-110400000D01*
X107800000Y-110400000D01*
G37*
G36*
X94509683Y-108576317D02*
G01*
X94518995Y-108579142D01*
X94527583Y-108583732D01*
X94535099Y-108589901D01*
X94541268Y-108597417D01*
X94545858Y-108606005D01*
X94548683Y-108615317D01*
X94550000Y-108628687D01*
X94550000Y-108871313D01*
X94548683Y-108884683D01*
X94545858Y-108893995D01*
X94541268Y-108902583D01*
X94535099Y-108910099D01*
X94527583Y-108916268D01*
X94518995Y-108920858D01*
X94509683Y-108923683D01*
X94496313Y-108925000D01*
X93628687Y-108925000D01*
X93615317Y-108923683D01*
X93606005Y-108920858D01*
X93597417Y-108916268D01*
X93589901Y-108910099D01*
X93583732Y-108902583D01*
X93579142Y-108893995D01*
X93576317Y-108884683D01*
X93575000Y-108871313D01*
X93575000Y-108628687D01*
X93576317Y-108615317D01*
X93579142Y-108606005D01*
X93583732Y-108597417D01*
X93589901Y-108589901D01*
X93597417Y-108583732D01*
X93606005Y-108579142D01*
X93615317Y-108576317D01*
X93628687Y-108575000D01*
X94496313Y-108575000D01*
X94509683Y-108576317D01*
X94509683Y-108576317D01*
G37*
G36*
X102384683Y-108576317D02*
G01*
X102393995Y-108579142D01*
X102402583Y-108583732D01*
X102410099Y-108589901D01*
X102416268Y-108597417D01*
X102420858Y-108606005D01*
X102423683Y-108615317D01*
X102425000Y-108628687D01*
X102425000Y-108871313D01*
X102423683Y-108884683D01*
X102420858Y-108893995D01*
X102416268Y-108902583D01*
X102410099Y-108910099D01*
X102402583Y-108916268D01*
X102393995Y-108920858D01*
X102384683Y-108923683D01*
X102371313Y-108925000D01*
X101503687Y-108925000D01*
X101490317Y-108923683D01*
X101481005Y-108920858D01*
X101472417Y-108916268D01*
X101464901Y-108910099D01*
X101458732Y-108902583D01*
X101454142Y-108893995D01*
X101451317Y-108884683D01*
X101450000Y-108871313D01*
X101450000Y-108628687D01*
X101451317Y-108615317D01*
X101454142Y-108606005D01*
X101458732Y-108597417D01*
X101464901Y-108589901D01*
X101472417Y-108583732D01*
X101481005Y-108579142D01*
X101490317Y-108576317D01*
X101503687Y-108575000D01*
X102371313Y-108575000D01*
X102384683Y-108576317D01*
X102384683Y-108576317D01*
G37*
G36*
X100700087Y-103153933D02*
G01*
X100734938Y-103164505D01*
X100767062Y-103181676D01*
X100795218Y-103204782D01*
X100818324Y-103232938D01*
X100835495Y-103265062D01*
X100846067Y-103299913D01*
X100850000Y-103339848D01*
X100850000Y-108660152D01*
X100846067Y-108700087D01*
X100835495Y-108734938D01*
X100818324Y-108767062D01*
X100795218Y-108795218D01*
X100767062Y-108818324D01*
X100734938Y-108835495D01*
X100700087Y-108846067D01*
X100660152Y-108850000D01*
X95339848Y-108850000D01*
X95299913Y-108846067D01*
X95265062Y-108835495D01*
X95232938Y-108818324D01*
X95204782Y-108795218D01*
X95181676Y-108767062D01*
X95164505Y-108734938D01*
X95153933Y-108700087D01*
X95150000Y-108660152D01*
X95150000Y-103339848D01*
X95153933Y-103299913D01*
X95164505Y-103265062D01*
X95181676Y-103232938D01*
X95204782Y-103204782D01*
X95232938Y-103181676D01*
X95265062Y-103164505D01*
X95299913Y-103153933D01*
X95339848Y-103150000D01*
X100660152Y-103150000D01*
X100700087Y-103153933D01*
X100700087Y-103153933D01*
G37*
G36*
X90800000Y-108500000D02*
G01*
X89700000Y-108500000D01*
X89700000Y-107600000D01*
X90800000Y-107600000D01*
X90800000Y-108500000D01*
X90800000Y-108500000D01*
G37*
G36*
X89300000Y-108500000D02*
G01*
X88200000Y-108500000D01*
X88200000Y-107600000D01*
X89300000Y-107600000D01*
X89300000Y-108500000D01*
X89300000Y-108500000D01*
G37*
G36*
X106300000Y-108500000D02*
G01*
X105200000Y-108500000D01*
X105200000Y-107600000D01*
X106300000Y-107600000D01*
X106300000Y-108500000D01*
X106300000Y-108500000D01*
G37*
G36*
X107800000Y-108500000D02*
G01*
X106700000Y-108500000D01*
X106700000Y-107600000D01*
X107800000Y-107600000D01*
X107800000Y-108500000D01*
X107800000Y-108500000D01*
G37*
G36*
X94509683Y-108076317D02*
G01*
X94518995Y-108079142D01*
X94527583Y-108083732D01*
X94535099Y-108089901D01*
X94541268Y-108097417D01*
X94545858Y-108106005D01*
X94548683Y-108115317D01*
X94550000Y-108128687D01*
X94550000Y-108371313D01*
X94548683Y-108384683D01*
X94545858Y-108393995D01*
X94541268Y-108402583D01*
X94535099Y-108410099D01*
X94527583Y-108416268D01*
X94518995Y-108420858D01*
X94509683Y-108423683D01*
X94496313Y-108425000D01*
X93628687Y-108425000D01*
X93615317Y-108423683D01*
X93606005Y-108420858D01*
X93597417Y-108416268D01*
X93589901Y-108410099D01*
X93583732Y-108402583D01*
X93579142Y-108393995D01*
X93576317Y-108384683D01*
X93575000Y-108371313D01*
X93575000Y-108128687D01*
X93576317Y-108115317D01*
X93579142Y-108106005D01*
X93583732Y-108097417D01*
X93589901Y-108089901D01*
X93597417Y-108083732D01*
X93606005Y-108079142D01*
X93615317Y-108076317D01*
X93628687Y-108075000D01*
X94496313Y-108075000D01*
X94509683Y-108076317D01*
X94509683Y-108076317D01*
G37*
G36*
X102384683Y-108076317D02*
G01*
X102393995Y-108079142D01*
X102402583Y-108083732D01*
X102410099Y-108089901D01*
X102416268Y-108097417D01*
X102420858Y-108106005D01*
X102423683Y-108115317D01*
X102425000Y-108128687D01*
X102425000Y-108371313D01*
X102423683Y-108384683D01*
X102420858Y-108393995D01*
X102416268Y-108402583D01*
X102410099Y-108410099D01*
X102402583Y-108416268D01*
X102393995Y-108420858D01*
X102384683Y-108423683D01*
X102371313Y-108425000D01*
X101503687Y-108425000D01*
X101490317Y-108423683D01*
X101481005Y-108420858D01*
X101472417Y-108416268D01*
X101464901Y-108410099D01*
X101458732Y-108402583D01*
X101454142Y-108393995D01*
X101451317Y-108384683D01*
X101450000Y-108371313D01*
X101450000Y-108128687D01*
X101451317Y-108115317D01*
X101454142Y-108106005D01*
X101458732Y-108097417D01*
X101464901Y-108089901D01*
X101472417Y-108083732D01*
X101481005Y-108079142D01*
X101490317Y-108076317D01*
X101503687Y-108075000D01*
X102371313Y-108075000D01*
X102384683Y-108076317D01*
X102384683Y-108076317D01*
G37*
G36*
X94509683Y-107576317D02*
G01*
X94518995Y-107579142D01*
X94527583Y-107583732D01*
X94535099Y-107589901D01*
X94541268Y-107597417D01*
X94545858Y-107606005D01*
X94548683Y-107615317D01*
X94550000Y-107628687D01*
X94550000Y-107871313D01*
X94548683Y-107884683D01*
X94545858Y-107893995D01*
X94541268Y-107902583D01*
X94535099Y-107910099D01*
X94527583Y-107916268D01*
X94518995Y-107920858D01*
X94509683Y-107923683D01*
X94496313Y-107925000D01*
X93628687Y-107925000D01*
X93615317Y-107923683D01*
X93606005Y-107920858D01*
X93597417Y-107916268D01*
X93589901Y-107910099D01*
X93583732Y-107902583D01*
X93579142Y-107893995D01*
X93576317Y-107884683D01*
X93575000Y-107871313D01*
X93575000Y-107628687D01*
X93576317Y-107615317D01*
X93579142Y-107606005D01*
X93583732Y-107597417D01*
X93589901Y-107589901D01*
X93597417Y-107583732D01*
X93606005Y-107579142D01*
X93615317Y-107576317D01*
X93628687Y-107575000D01*
X94496313Y-107575000D01*
X94509683Y-107576317D01*
X94509683Y-107576317D01*
G37*
G36*
X102384683Y-107576317D02*
G01*
X102393995Y-107579142D01*
X102402583Y-107583732D01*
X102410099Y-107589901D01*
X102416268Y-107597417D01*
X102420858Y-107606005D01*
X102423683Y-107615317D01*
X102425000Y-107628687D01*
X102425000Y-107871313D01*
X102423683Y-107884683D01*
X102420858Y-107893995D01*
X102416268Y-107902583D01*
X102410099Y-107910099D01*
X102402583Y-107916268D01*
X102393995Y-107920858D01*
X102384683Y-107923683D01*
X102371313Y-107925000D01*
X101503687Y-107925000D01*
X101490317Y-107923683D01*
X101481005Y-107920858D01*
X101472417Y-107916268D01*
X101464901Y-107910099D01*
X101458732Y-107902583D01*
X101454142Y-107893995D01*
X101451317Y-107884683D01*
X101450000Y-107871313D01*
X101450000Y-107628687D01*
X101451317Y-107615317D01*
X101454142Y-107606005D01*
X101458732Y-107597417D01*
X101464901Y-107589901D01*
X101472417Y-107583732D01*
X101481005Y-107579142D01*
X101490317Y-107576317D01*
X101503687Y-107575000D01*
X102371313Y-107575000D01*
X102384683Y-107576317D01*
X102384683Y-107576317D01*
G37*
G36*
X102384683Y-107076317D02*
G01*
X102393995Y-107079142D01*
X102402583Y-107083732D01*
X102410099Y-107089901D01*
X102416268Y-107097417D01*
X102420858Y-107106005D01*
X102423683Y-107115317D01*
X102425000Y-107128687D01*
X102425000Y-107371313D01*
X102423683Y-107384683D01*
X102420858Y-107393995D01*
X102416268Y-107402583D01*
X102410099Y-107410099D01*
X102402583Y-107416268D01*
X102393995Y-107420858D01*
X102384683Y-107423683D01*
X102371313Y-107425000D01*
X101503687Y-107425000D01*
X101490317Y-107423683D01*
X101481005Y-107420858D01*
X101472417Y-107416268D01*
X101464901Y-107410099D01*
X101458732Y-107402583D01*
X101454142Y-107393995D01*
X101451317Y-107384683D01*
X101450000Y-107371313D01*
X101450000Y-107128687D01*
X101451317Y-107115317D01*
X101454142Y-107106005D01*
X101458732Y-107097417D01*
X101464901Y-107089901D01*
X101472417Y-107083732D01*
X101481005Y-107079142D01*
X101490317Y-107076317D01*
X101503687Y-107075000D01*
X102371313Y-107075000D01*
X102384683Y-107076317D01*
X102384683Y-107076317D01*
G37*
G36*
X94509683Y-107076317D02*
G01*
X94518995Y-107079142D01*
X94527583Y-107083732D01*
X94535099Y-107089901D01*
X94541268Y-107097417D01*
X94545858Y-107106005D01*
X94548683Y-107115317D01*
X94550000Y-107128687D01*
X94550000Y-107371313D01*
X94548683Y-107384683D01*
X94545858Y-107393995D01*
X94541268Y-107402583D01*
X94535099Y-107410099D01*
X94527583Y-107416268D01*
X94518995Y-107420858D01*
X94509683Y-107423683D01*
X94496313Y-107425000D01*
X93628687Y-107425000D01*
X93615317Y-107423683D01*
X93606005Y-107420858D01*
X93597417Y-107416268D01*
X93589901Y-107410099D01*
X93583732Y-107402583D01*
X93579142Y-107393995D01*
X93576317Y-107384683D01*
X93575000Y-107371313D01*
X93575000Y-107128687D01*
X93576317Y-107115317D01*
X93579142Y-107106005D01*
X93583732Y-107097417D01*
X93589901Y-107089901D01*
X93597417Y-107083732D01*
X93606005Y-107079142D01*
X93615317Y-107076317D01*
X93628687Y-107075000D01*
X94496313Y-107075000D01*
X94509683Y-107076317D01*
X94509683Y-107076317D01*
G37*
G36*
X90800000Y-107400000D02*
G01*
X89700000Y-107400000D01*
X89700000Y-106500000D01*
X90800000Y-106500000D01*
X90800000Y-107400000D01*
X90800000Y-107400000D01*
G37*
G36*
X107800000Y-107400000D02*
G01*
X106700000Y-107400000D01*
X106700000Y-106500000D01*
X107800000Y-106500000D01*
X107800000Y-107400000D01*
X107800000Y-107400000D01*
G37*
G36*
X106300000Y-107400000D02*
G01*
X105200000Y-107400000D01*
X105200000Y-106500000D01*
X106300000Y-106500000D01*
X106300000Y-107400000D01*
X106300000Y-107400000D01*
G37*
G36*
X89300000Y-107400000D02*
G01*
X88200000Y-107400000D01*
X88200000Y-106500000D01*
X89300000Y-106500000D01*
X89300000Y-107400000D01*
X89300000Y-107400000D01*
G37*
G36*
X102384683Y-106576317D02*
G01*
X102393995Y-106579142D01*
X102402583Y-106583732D01*
X102410099Y-106589901D01*
X102416268Y-106597417D01*
X102420858Y-106606005D01*
X102423683Y-106615317D01*
X102425000Y-106628687D01*
X102425000Y-106871313D01*
X102423683Y-106884683D01*
X102420858Y-106893995D01*
X102416268Y-106902583D01*
X102410099Y-106910099D01*
X102402583Y-106916268D01*
X102393995Y-106920858D01*
X102384683Y-106923683D01*
X102371313Y-106925000D01*
X101503687Y-106925000D01*
X101490317Y-106923683D01*
X101481005Y-106920858D01*
X101472417Y-106916268D01*
X101464901Y-106910099D01*
X101458732Y-106902583D01*
X101454142Y-106893995D01*
X101451317Y-106884683D01*
X101450000Y-106871313D01*
X101450000Y-106628687D01*
X101451317Y-106615317D01*
X101454142Y-106606005D01*
X101458732Y-106597417D01*
X101464901Y-106589901D01*
X101472417Y-106583732D01*
X101481005Y-106579142D01*
X101490317Y-106576317D01*
X101503687Y-106575000D01*
X102371313Y-106575000D01*
X102384683Y-106576317D01*
X102384683Y-106576317D01*
G37*
G36*
X94509683Y-106576317D02*
G01*
X94518995Y-106579142D01*
X94527583Y-106583732D01*
X94535099Y-106589901D01*
X94541268Y-106597417D01*
X94545858Y-106606005D01*
X94548683Y-106615317D01*
X94550000Y-106628687D01*
X94550000Y-106871313D01*
X94548683Y-106884683D01*
X94545858Y-106893995D01*
X94541268Y-106902583D01*
X94535099Y-106910099D01*
X94527583Y-106916268D01*
X94518995Y-106920858D01*
X94509683Y-106923683D01*
X94496313Y-106925000D01*
X93628687Y-106925000D01*
X93615317Y-106923683D01*
X93606005Y-106920858D01*
X93597417Y-106916268D01*
X93589901Y-106910099D01*
X93583732Y-106902583D01*
X93579142Y-106893995D01*
X93576317Y-106884683D01*
X93575000Y-106871313D01*
X93575000Y-106628687D01*
X93576317Y-106615317D01*
X93579142Y-106606005D01*
X93583732Y-106597417D01*
X93589901Y-106589901D01*
X93597417Y-106583732D01*
X93606005Y-106579142D01*
X93615317Y-106576317D01*
X93628687Y-106575000D01*
X94496313Y-106575000D01*
X94509683Y-106576317D01*
X94509683Y-106576317D01*
G37*
G36*
X94509683Y-106076317D02*
G01*
X94518995Y-106079142D01*
X94527583Y-106083732D01*
X94535099Y-106089901D01*
X94541268Y-106097417D01*
X94545858Y-106106005D01*
X94548683Y-106115317D01*
X94550000Y-106128687D01*
X94550000Y-106371313D01*
X94548683Y-106384683D01*
X94545858Y-106393995D01*
X94541268Y-106402583D01*
X94535099Y-106410099D01*
X94527583Y-106416268D01*
X94518995Y-106420858D01*
X94509683Y-106423683D01*
X94496313Y-106425000D01*
X93628687Y-106425000D01*
X93615317Y-106423683D01*
X93606005Y-106420858D01*
X93597417Y-106416268D01*
X93589901Y-106410099D01*
X93583732Y-106402583D01*
X93579142Y-106393995D01*
X93576317Y-106384683D01*
X93575000Y-106371313D01*
X93575000Y-106128687D01*
X93576317Y-106115317D01*
X93579142Y-106106005D01*
X93583732Y-106097417D01*
X93589901Y-106089901D01*
X93597417Y-106083732D01*
X93606005Y-106079142D01*
X93615317Y-106076317D01*
X93628687Y-106075000D01*
X94496313Y-106075000D01*
X94509683Y-106076317D01*
X94509683Y-106076317D01*
G37*
G36*
X102384683Y-106076317D02*
G01*
X102393995Y-106079142D01*
X102402583Y-106083732D01*
X102410099Y-106089901D01*
X102416268Y-106097417D01*
X102420858Y-106106005D01*
X102423683Y-106115317D01*
X102425000Y-106128687D01*
X102425000Y-106371313D01*
X102423683Y-106384683D01*
X102420858Y-106393995D01*
X102416268Y-106402583D01*
X102410099Y-106410099D01*
X102402583Y-106416268D01*
X102393995Y-106420858D01*
X102384683Y-106423683D01*
X102371313Y-106425000D01*
X101503687Y-106425000D01*
X101490317Y-106423683D01*
X101481005Y-106420858D01*
X101472417Y-106416268D01*
X101464901Y-106410099D01*
X101458732Y-106402583D01*
X101454142Y-106393995D01*
X101451317Y-106384683D01*
X101450000Y-106371313D01*
X101450000Y-106128687D01*
X101451317Y-106115317D01*
X101454142Y-106106005D01*
X101458732Y-106097417D01*
X101464901Y-106089901D01*
X101472417Y-106083732D01*
X101481005Y-106079142D01*
X101490317Y-106076317D01*
X101503687Y-106075000D01*
X102371313Y-106075000D01*
X102384683Y-106076317D01*
X102384683Y-106076317D01*
G37*
G36*
X102384683Y-105576317D02*
G01*
X102393995Y-105579142D01*
X102402583Y-105583732D01*
X102410099Y-105589901D01*
X102416268Y-105597417D01*
X102420858Y-105606005D01*
X102423683Y-105615317D01*
X102425000Y-105628687D01*
X102425000Y-105871313D01*
X102423683Y-105884683D01*
X102420858Y-105893995D01*
X102416268Y-105902583D01*
X102410099Y-105910099D01*
X102402583Y-105916268D01*
X102393995Y-105920858D01*
X102384683Y-105923683D01*
X102371313Y-105925000D01*
X101503687Y-105925000D01*
X101490317Y-105923683D01*
X101481005Y-105920858D01*
X101472417Y-105916268D01*
X101464901Y-105910099D01*
X101458732Y-105902583D01*
X101454142Y-105893995D01*
X101451317Y-105884683D01*
X101450000Y-105871313D01*
X101450000Y-105628687D01*
X101451317Y-105615317D01*
X101454142Y-105606005D01*
X101458732Y-105597417D01*
X101464901Y-105589901D01*
X101472417Y-105583732D01*
X101481005Y-105579142D01*
X101490317Y-105576317D01*
X101503687Y-105575000D01*
X102371313Y-105575000D01*
X102384683Y-105576317D01*
X102384683Y-105576317D01*
G37*
G36*
X94509683Y-105576317D02*
G01*
X94518995Y-105579142D01*
X94527583Y-105583732D01*
X94535099Y-105589901D01*
X94541268Y-105597417D01*
X94545858Y-105606005D01*
X94548683Y-105615317D01*
X94550000Y-105628687D01*
X94550000Y-105871313D01*
X94548683Y-105884683D01*
X94545858Y-105893995D01*
X94541268Y-105902583D01*
X94535099Y-105910099D01*
X94527583Y-105916268D01*
X94518995Y-105920858D01*
X94509683Y-105923683D01*
X94496313Y-105925000D01*
X93628687Y-105925000D01*
X93615317Y-105923683D01*
X93606005Y-105920858D01*
X93597417Y-105916268D01*
X93589901Y-105910099D01*
X93583732Y-105902583D01*
X93579142Y-105893995D01*
X93576317Y-105884683D01*
X93575000Y-105871313D01*
X93575000Y-105628687D01*
X93576317Y-105615317D01*
X93579142Y-105606005D01*
X93583732Y-105597417D01*
X93589901Y-105589901D01*
X93597417Y-105583732D01*
X93606005Y-105579142D01*
X93615317Y-105576317D01*
X93628687Y-105575000D01*
X94496313Y-105575000D01*
X94509683Y-105576317D01*
X94509683Y-105576317D01*
G37*
G36*
X107800000Y-105500000D02*
G01*
X106700000Y-105500000D01*
X106700000Y-104600000D01*
X107800000Y-104600000D01*
X107800000Y-105500000D01*
X107800000Y-105500000D01*
G37*
G36*
X89300000Y-105500000D02*
G01*
X88200000Y-105500000D01*
X88200000Y-104600000D01*
X89300000Y-104600000D01*
X89300000Y-105500000D01*
X89300000Y-105500000D01*
G37*
G36*
X106300000Y-105500000D02*
G01*
X105200000Y-105500000D01*
X105200000Y-104600000D01*
X106300000Y-104600000D01*
X106300000Y-105500000D01*
X106300000Y-105500000D01*
G37*
G36*
X90800000Y-105500000D02*
G01*
X89700000Y-105500000D01*
X89700000Y-104600000D01*
X90800000Y-104600000D01*
X90800000Y-105500000D01*
X90800000Y-105500000D01*
G37*
G36*
X102384683Y-105076317D02*
G01*
X102393995Y-105079142D01*
X102402583Y-105083732D01*
X102410099Y-105089901D01*
X102416268Y-105097417D01*
X102420858Y-105106005D01*
X102423683Y-105115317D01*
X102425000Y-105128687D01*
X102425000Y-105371313D01*
X102423683Y-105384683D01*
X102420858Y-105393995D01*
X102416268Y-105402583D01*
X102410099Y-105410099D01*
X102402583Y-105416268D01*
X102393995Y-105420858D01*
X102384683Y-105423683D01*
X102371313Y-105425000D01*
X101503687Y-105425000D01*
X101490317Y-105423683D01*
X101481005Y-105420858D01*
X101472417Y-105416268D01*
X101464901Y-105410099D01*
X101458732Y-105402583D01*
X101454142Y-105393995D01*
X101451317Y-105384683D01*
X101450000Y-105371313D01*
X101450000Y-105128687D01*
X101451317Y-105115317D01*
X101454142Y-105106005D01*
X101458732Y-105097417D01*
X101464901Y-105089901D01*
X101472417Y-105083732D01*
X101481005Y-105079142D01*
X101490317Y-105076317D01*
X101503687Y-105075000D01*
X102371313Y-105075000D01*
X102384683Y-105076317D01*
X102384683Y-105076317D01*
G37*
G36*
X94509683Y-105076317D02*
G01*
X94518995Y-105079142D01*
X94527583Y-105083732D01*
X94535099Y-105089901D01*
X94541268Y-105097417D01*
X94545858Y-105106005D01*
X94548683Y-105115317D01*
X94550000Y-105128687D01*
X94550000Y-105371313D01*
X94548683Y-105384683D01*
X94545858Y-105393995D01*
X94541268Y-105402583D01*
X94535099Y-105410099D01*
X94527583Y-105416268D01*
X94518995Y-105420858D01*
X94509683Y-105423683D01*
X94496313Y-105425000D01*
X93628687Y-105425000D01*
X93615317Y-105423683D01*
X93606005Y-105420858D01*
X93597417Y-105416268D01*
X93589901Y-105410099D01*
X93583732Y-105402583D01*
X93579142Y-105393995D01*
X93576317Y-105384683D01*
X93575000Y-105371313D01*
X93575000Y-105128687D01*
X93576317Y-105115317D01*
X93579142Y-105106005D01*
X93583732Y-105097417D01*
X93589901Y-105089901D01*
X93597417Y-105083732D01*
X93606005Y-105079142D01*
X93615317Y-105076317D01*
X93628687Y-105075000D01*
X94496313Y-105075000D01*
X94509683Y-105076317D01*
X94509683Y-105076317D01*
G37*
G36*
X94509683Y-104576317D02*
G01*
X94518995Y-104579142D01*
X94527583Y-104583732D01*
X94535099Y-104589901D01*
X94541268Y-104597417D01*
X94545858Y-104606005D01*
X94548683Y-104615317D01*
X94550000Y-104628687D01*
X94550000Y-104871313D01*
X94548683Y-104884683D01*
X94545858Y-104893995D01*
X94541268Y-104902583D01*
X94535099Y-104910099D01*
X94527583Y-104916268D01*
X94518995Y-104920858D01*
X94509683Y-104923683D01*
X94496313Y-104925000D01*
X93628687Y-104925000D01*
X93615317Y-104923683D01*
X93606005Y-104920858D01*
X93597417Y-104916268D01*
X93589901Y-104910099D01*
X93583732Y-104902583D01*
X93579142Y-104893995D01*
X93576317Y-104884683D01*
X93575000Y-104871313D01*
X93575000Y-104628687D01*
X93576317Y-104615317D01*
X93579142Y-104606005D01*
X93583732Y-104597417D01*
X93589901Y-104589901D01*
X93597417Y-104583732D01*
X93606005Y-104579142D01*
X93615317Y-104576317D01*
X93628687Y-104575000D01*
X94496313Y-104575000D01*
X94509683Y-104576317D01*
X94509683Y-104576317D01*
G37*
G36*
X102384683Y-104576317D02*
G01*
X102393995Y-104579142D01*
X102402583Y-104583732D01*
X102410099Y-104589901D01*
X102416268Y-104597417D01*
X102420858Y-104606005D01*
X102423683Y-104615317D01*
X102425000Y-104628687D01*
X102425000Y-104871313D01*
X102423683Y-104884683D01*
X102420858Y-104893995D01*
X102416268Y-104902583D01*
X102410099Y-104910099D01*
X102402583Y-104916268D01*
X102393995Y-104920858D01*
X102384683Y-104923683D01*
X102371313Y-104925000D01*
X101503687Y-104925000D01*
X101490317Y-104923683D01*
X101481005Y-104920858D01*
X101472417Y-104916268D01*
X101464901Y-104910099D01*
X101458732Y-104902583D01*
X101454142Y-104893995D01*
X101451317Y-104884683D01*
X101450000Y-104871313D01*
X101450000Y-104628687D01*
X101451317Y-104615317D01*
X101454142Y-104606005D01*
X101458732Y-104597417D01*
X101464901Y-104589901D01*
X101472417Y-104583732D01*
X101481005Y-104579142D01*
X101490317Y-104576317D01*
X101503687Y-104575000D01*
X102371313Y-104575000D01*
X102384683Y-104576317D01*
X102384683Y-104576317D01*
G37*
G36*
X94509683Y-104076317D02*
G01*
X94518995Y-104079142D01*
X94527583Y-104083732D01*
X94535099Y-104089901D01*
X94541268Y-104097417D01*
X94545858Y-104106005D01*
X94548683Y-104115317D01*
X94550000Y-104128687D01*
X94550000Y-104371313D01*
X94548683Y-104384683D01*
X94545858Y-104393995D01*
X94541268Y-104402583D01*
X94535099Y-104410099D01*
X94527583Y-104416268D01*
X94518995Y-104420858D01*
X94509683Y-104423683D01*
X94496313Y-104425000D01*
X93628687Y-104425000D01*
X93615317Y-104423683D01*
X93606005Y-104420858D01*
X93597417Y-104416268D01*
X93589901Y-104410099D01*
X93583732Y-104402583D01*
X93579142Y-104393995D01*
X93576317Y-104384683D01*
X93575000Y-104371313D01*
X93575000Y-104128687D01*
X93576317Y-104115317D01*
X93579142Y-104106005D01*
X93583732Y-104097417D01*
X93589901Y-104089901D01*
X93597417Y-104083732D01*
X93606005Y-104079142D01*
X93615317Y-104076317D01*
X93628687Y-104075000D01*
X94496313Y-104075000D01*
X94509683Y-104076317D01*
X94509683Y-104076317D01*
G37*
G36*
X102384683Y-104076317D02*
G01*
X102393995Y-104079142D01*
X102402583Y-104083732D01*
X102410099Y-104089901D01*
X102416268Y-104097417D01*
X102420858Y-104106005D01*
X102423683Y-104115317D01*
X102425000Y-104128687D01*
X102425000Y-104371313D01*
X102423683Y-104384683D01*
X102420858Y-104393995D01*
X102416268Y-104402583D01*
X102410099Y-104410099D01*
X102402583Y-104416268D01*
X102393995Y-104420858D01*
X102384683Y-104423683D01*
X102371313Y-104425000D01*
X101503687Y-104425000D01*
X101490317Y-104423683D01*
X101481005Y-104420858D01*
X101472417Y-104416268D01*
X101464901Y-104410099D01*
X101458732Y-104402583D01*
X101454142Y-104393995D01*
X101451317Y-104384683D01*
X101450000Y-104371313D01*
X101450000Y-104128687D01*
X101451317Y-104115317D01*
X101454142Y-104106005D01*
X101458732Y-104097417D01*
X101464901Y-104089901D01*
X101472417Y-104083732D01*
X101481005Y-104079142D01*
X101490317Y-104076317D01*
X101503687Y-104075000D01*
X102371313Y-104075000D01*
X102384683Y-104076317D01*
X102384683Y-104076317D01*
G37*
G36*
X90800000Y-104400000D02*
G01*
X89700000Y-104400000D01*
X89700000Y-103500000D01*
X90800000Y-103500000D01*
X90800000Y-104400000D01*
X90800000Y-104400000D01*
G37*
G36*
X89300000Y-104400000D02*
G01*
X88200000Y-104400000D01*
X88200000Y-103500000D01*
X89300000Y-103500000D01*
X89300000Y-104400000D01*
X89300000Y-104400000D01*
G37*
G36*
X106300000Y-104400000D02*
G01*
X105200000Y-104400000D01*
X105200000Y-103500000D01*
X106300000Y-103500000D01*
X106300000Y-104400000D01*
X106300000Y-104400000D01*
G37*
G36*
X107800000Y-104400000D02*
G01*
X106700000Y-104400000D01*
X106700000Y-103500000D01*
X107800000Y-103500000D01*
X107800000Y-104400000D01*
X107800000Y-104400000D01*
G37*
G36*
X102384683Y-103576317D02*
G01*
X102393995Y-103579142D01*
X102402583Y-103583732D01*
X102410099Y-103589901D01*
X102416268Y-103597417D01*
X102420858Y-103606005D01*
X102423683Y-103615317D01*
X102425000Y-103628687D01*
X102425000Y-103871313D01*
X102423683Y-103884683D01*
X102420858Y-103893995D01*
X102416268Y-103902583D01*
X102410099Y-103910099D01*
X102402583Y-103916268D01*
X102393995Y-103920858D01*
X102384683Y-103923683D01*
X102371313Y-103925000D01*
X101503687Y-103925000D01*
X101490317Y-103923683D01*
X101481005Y-103920858D01*
X101472417Y-103916268D01*
X101464901Y-103910099D01*
X101458732Y-103902583D01*
X101454142Y-103893995D01*
X101451317Y-103884683D01*
X101450000Y-103871313D01*
X101450000Y-103628687D01*
X101451317Y-103615317D01*
X101454142Y-103606005D01*
X101458732Y-103597417D01*
X101464901Y-103589901D01*
X101472417Y-103583732D01*
X101481005Y-103579142D01*
X101490317Y-103576317D01*
X101503687Y-103575000D01*
X102371313Y-103575000D01*
X102384683Y-103576317D01*
X102384683Y-103576317D01*
G37*
G36*
X94509683Y-103576317D02*
G01*
X94518995Y-103579142D01*
X94527583Y-103583732D01*
X94535099Y-103589901D01*
X94541268Y-103597417D01*
X94545858Y-103606005D01*
X94548683Y-103615317D01*
X94550000Y-103628687D01*
X94550000Y-103871313D01*
X94548683Y-103884683D01*
X94545858Y-103893995D01*
X94541268Y-103902583D01*
X94535099Y-103910099D01*
X94527583Y-103916268D01*
X94518995Y-103920858D01*
X94509683Y-103923683D01*
X94496313Y-103925000D01*
X93628687Y-103925000D01*
X93615317Y-103923683D01*
X93606005Y-103920858D01*
X93597417Y-103916268D01*
X93589901Y-103910099D01*
X93583732Y-103902583D01*
X93579142Y-103893995D01*
X93576317Y-103884683D01*
X93575000Y-103871313D01*
X93575000Y-103628687D01*
X93576317Y-103615317D01*
X93579142Y-103606005D01*
X93583732Y-103597417D01*
X93589901Y-103589901D01*
X93597417Y-103583732D01*
X93606005Y-103579142D01*
X93615317Y-103576317D01*
X93628687Y-103575000D01*
X94496313Y-103575000D01*
X94509683Y-103576317D01*
X94509683Y-103576317D01*
G37*
G36*
X102384683Y-103076317D02*
G01*
X102393995Y-103079142D01*
X102402583Y-103083732D01*
X102410099Y-103089901D01*
X102416268Y-103097417D01*
X102420858Y-103106005D01*
X102423683Y-103115317D01*
X102425000Y-103128687D01*
X102425000Y-103371313D01*
X102423683Y-103384683D01*
X102420858Y-103393995D01*
X102416268Y-103402583D01*
X102410099Y-103410099D01*
X102402583Y-103416268D01*
X102393995Y-103420858D01*
X102384683Y-103423683D01*
X102371313Y-103425000D01*
X101503687Y-103425000D01*
X101490317Y-103423683D01*
X101481005Y-103420858D01*
X101472417Y-103416268D01*
X101464901Y-103410099D01*
X101458732Y-103402583D01*
X101454142Y-103393995D01*
X101451317Y-103384683D01*
X101450000Y-103371313D01*
X101450000Y-103128687D01*
X101451317Y-103115317D01*
X101454142Y-103106005D01*
X101458732Y-103097417D01*
X101464901Y-103089901D01*
X101472417Y-103083732D01*
X101481005Y-103079142D01*
X101490317Y-103076317D01*
X101503687Y-103075000D01*
X102371313Y-103075000D01*
X102384683Y-103076317D01*
X102384683Y-103076317D01*
G37*
G36*
X94509683Y-103076317D02*
G01*
X94518995Y-103079142D01*
X94527583Y-103083732D01*
X94535099Y-103089901D01*
X94541268Y-103097417D01*
X94545858Y-103106005D01*
X94548683Y-103115317D01*
X94550000Y-103128687D01*
X94550000Y-103371313D01*
X94548683Y-103384683D01*
X94545858Y-103393995D01*
X94541268Y-103402583D01*
X94535099Y-103410099D01*
X94527583Y-103416268D01*
X94518995Y-103420858D01*
X94509683Y-103423683D01*
X94496313Y-103425000D01*
X93628687Y-103425000D01*
X93615317Y-103423683D01*
X93606005Y-103420858D01*
X93597417Y-103416268D01*
X93589901Y-103410099D01*
X93583732Y-103402583D01*
X93579142Y-103393995D01*
X93576317Y-103384683D01*
X93575000Y-103371313D01*
X93575000Y-103128687D01*
X93576317Y-103115317D01*
X93579142Y-103106005D01*
X93583732Y-103097417D01*
X93589901Y-103089901D01*
X93597417Y-103083732D01*
X93606005Y-103079142D01*
X93615317Y-103076317D01*
X93628687Y-103075000D01*
X94496313Y-103075000D01*
X94509683Y-103076317D01*
X94509683Y-103076317D01*
G37*
G36*
X94884683Y-101576317D02*
G01*
X94893995Y-101579142D01*
X94902583Y-101583732D01*
X94910099Y-101589901D01*
X94916268Y-101597417D01*
X94920858Y-101606005D01*
X94923683Y-101615317D01*
X94925000Y-101628687D01*
X94925000Y-102496313D01*
X94923683Y-102509683D01*
X94920858Y-102518995D01*
X94916268Y-102527583D01*
X94910099Y-102535099D01*
X94902583Y-102541268D01*
X94893995Y-102545858D01*
X94884683Y-102548683D01*
X94871313Y-102550000D01*
X94624999Y-102550000D01*
X94610367Y-102551441D01*
X94596298Y-102555709D01*
X94583332Y-102562640D01*
X94571967Y-102571967D01*
X94562640Y-102583332D01*
X94555709Y-102596298D01*
X94551441Y-102610367D01*
X94550000Y-102624999D01*
X94550000Y-102871313D01*
X94548683Y-102884683D01*
X94545858Y-102893995D01*
X94541268Y-102902583D01*
X94535099Y-102910099D01*
X94527583Y-102916268D01*
X94518995Y-102920858D01*
X94509683Y-102923683D01*
X94496313Y-102925000D01*
X93628687Y-102925000D01*
X93615317Y-102923683D01*
X93606005Y-102920858D01*
X93597417Y-102916268D01*
X93589901Y-102910099D01*
X93583732Y-102902583D01*
X93579142Y-102893995D01*
X93576317Y-102884683D01*
X93575000Y-102871313D01*
X93575000Y-102628687D01*
X93576317Y-102615317D01*
X93579142Y-102606005D01*
X93583732Y-102597417D01*
X93589901Y-102589901D01*
X93597417Y-102583732D01*
X93606005Y-102579142D01*
X93615317Y-102576317D01*
X93628687Y-102575000D01*
X94500001Y-102575000D01*
X94514633Y-102573559D01*
X94528702Y-102569291D01*
X94541668Y-102562360D01*
X94553033Y-102553033D01*
X94562360Y-102541668D01*
X94569291Y-102528702D01*
X94573559Y-102514633D01*
X94575000Y-102500001D01*
X94575000Y-101628687D01*
X94576317Y-101615317D01*
X94579142Y-101606005D01*
X94583732Y-101597417D01*
X94589901Y-101589901D01*
X94597417Y-101583732D01*
X94606005Y-101579142D01*
X94615317Y-101576317D01*
X94628687Y-101575000D01*
X94871313Y-101575000D01*
X94884683Y-101576317D01*
X94884683Y-101576317D01*
G37*
G36*
X101384683Y-101576317D02*
G01*
X101393995Y-101579142D01*
X101402583Y-101583732D01*
X101410099Y-101589901D01*
X101416268Y-101597417D01*
X101420858Y-101606005D01*
X101423683Y-101615317D01*
X101425000Y-101628687D01*
X101425000Y-102500001D01*
X101426441Y-102514633D01*
X101430709Y-102528702D01*
X101437640Y-102541668D01*
X101446967Y-102553033D01*
X101458332Y-102562360D01*
X101471298Y-102569291D01*
X101485367Y-102573559D01*
X101499999Y-102575000D01*
X102371313Y-102575000D01*
X102384683Y-102576317D01*
X102393995Y-102579142D01*
X102402583Y-102583732D01*
X102410099Y-102589901D01*
X102416268Y-102597417D01*
X102420858Y-102606005D01*
X102423683Y-102615317D01*
X102425000Y-102628687D01*
X102425000Y-102871313D01*
X102423683Y-102884683D01*
X102420858Y-102893995D01*
X102416268Y-102902583D01*
X102410099Y-102910099D01*
X102402583Y-102916268D01*
X102393995Y-102920858D01*
X102384683Y-102923683D01*
X102371313Y-102925000D01*
X101503687Y-102925000D01*
X101490317Y-102923683D01*
X101481005Y-102920858D01*
X101472417Y-102916268D01*
X101464901Y-102910099D01*
X101458732Y-102902583D01*
X101454142Y-102893995D01*
X101451317Y-102884683D01*
X101450000Y-102871313D01*
X101450000Y-102624999D01*
X101448559Y-102610367D01*
X101444291Y-102596298D01*
X101437360Y-102583332D01*
X101428033Y-102571967D01*
X101416668Y-102562640D01*
X101403702Y-102555709D01*
X101389633Y-102551441D01*
X101375001Y-102550000D01*
X101128687Y-102550000D01*
X101115317Y-102548683D01*
X101106005Y-102545858D01*
X101097417Y-102541268D01*
X101089901Y-102535099D01*
X101083732Y-102527583D01*
X101079142Y-102518995D01*
X101076317Y-102509683D01*
X101075000Y-102496313D01*
X101075000Y-101628687D01*
X101076317Y-101615317D01*
X101079142Y-101606005D01*
X101083732Y-101597417D01*
X101089901Y-101589901D01*
X101097417Y-101583732D01*
X101106005Y-101579142D01*
X101115317Y-101576317D01*
X101128687Y-101575000D01*
X101371313Y-101575000D01*
X101384683Y-101576317D01*
X101384683Y-101576317D01*
G37*
G36*
X96884683Y-101576317D02*
G01*
X96893995Y-101579142D01*
X96902583Y-101583732D01*
X96910099Y-101589901D01*
X96916268Y-101597417D01*
X96920858Y-101606005D01*
X96923683Y-101615317D01*
X96925000Y-101628687D01*
X96925000Y-102496313D01*
X96923683Y-102509683D01*
X96920858Y-102518995D01*
X96916268Y-102527583D01*
X96910099Y-102535099D01*
X96902583Y-102541268D01*
X96893995Y-102545858D01*
X96884683Y-102548683D01*
X96871313Y-102550000D01*
X96628687Y-102550000D01*
X96615317Y-102548683D01*
X96606005Y-102545858D01*
X96597417Y-102541268D01*
X96589901Y-102535099D01*
X96583732Y-102527583D01*
X96579142Y-102518995D01*
X96576317Y-102509683D01*
X96575000Y-102496313D01*
X96575000Y-101628687D01*
X96576317Y-101615317D01*
X96579142Y-101606005D01*
X96583732Y-101597417D01*
X96589901Y-101589901D01*
X96597417Y-101583732D01*
X96606005Y-101579142D01*
X96615317Y-101576317D01*
X96628687Y-101575000D01*
X96871313Y-101575000D01*
X96884683Y-101576317D01*
X96884683Y-101576317D01*
G37*
G36*
X97384683Y-101576317D02*
G01*
X97393995Y-101579142D01*
X97402583Y-101583732D01*
X97410099Y-101589901D01*
X97416268Y-101597417D01*
X97420858Y-101606005D01*
X97423683Y-101615317D01*
X97425000Y-101628687D01*
X97425000Y-102496313D01*
X97423683Y-102509683D01*
X97420858Y-102518995D01*
X97416268Y-102527583D01*
X97410099Y-102535099D01*
X97402583Y-102541268D01*
X97393995Y-102545858D01*
X97384683Y-102548683D01*
X97371313Y-102550000D01*
X97128687Y-102550000D01*
X97115317Y-102548683D01*
X97106005Y-102545858D01*
X97097417Y-102541268D01*
X97089901Y-102535099D01*
X97083732Y-102527583D01*
X97079142Y-102518995D01*
X97076317Y-102509683D01*
X97075000Y-102496313D01*
X97075000Y-101628687D01*
X97076317Y-101615317D01*
X97079142Y-101606005D01*
X97083732Y-101597417D01*
X97089901Y-101589901D01*
X97097417Y-101583732D01*
X97106005Y-101579142D01*
X97115317Y-101576317D01*
X97128687Y-101575000D01*
X97371313Y-101575000D01*
X97384683Y-101576317D01*
X97384683Y-101576317D01*
G37*
G36*
X97884683Y-101576317D02*
G01*
X97893995Y-101579142D01*
X97902583Y-101583732D01*
X97910099Y-101589901D01*
X97916268Y-101597417D01*
X97920858Y-101606005D01*
X97923683Y-101615317D01*
X97925000Y-101628687D01*
X97925000Y-102496313D01*
X97923683Y-102509683D01*
X97920858Y-102518995D01*
X97916268Y-102527583D01*
X97910099Y-102535099D01*
X97902583Y-102541268D01*
X97893995Y-102545858D01*
X97884683Y-102548683D01*
X97871313Y-102550000D01*
X97628687Y-102550000D01*
X97615317Y-102548683D01*
X97606005Y-102545858D01*
X97597417Y-102541268D01*
X97589901Y-102535099D01*
X97583732Y-102527583D01*
X97579142Y-102518995D01*
X97576317Y-102509683D01*
X97575000Y-102496313D01*
X97575000Y-101628687D01*
X97576317Y-101615317D01*
X97579142Y-101606005D01*
X97583732Y-101597417D01*
X97589901Y-101589901D01*
X97597417Y-101583732D01*
X97606005Y-101579142D01*
X97615317Y-101576317D01*
X97628687Y-101575000D01*
X97871313Y-101575000D01*
X97884683Y-101576317D01*
X97884683Y-101576317D01*
G37*
G36*
X98384683Y-101576317D02*
G01*
X98393995Y-101579142D01*
X98402583Y-101583732D01*
X98410099Y-101589901D01*
X98416268Y-101597417D01*
X98420858Y-101606005D01*
X98423683Y-101615317D01*
X98425000Y-101628687D01*
X98425000Y-102496313D01*
X98423683Y-102509683D01*
X98420858Y-102518995D01*
X98416268Y-102527583D01*
X98410099Y-102535099D01*
X98402583Y-102541268D01*
X98393995Y-102545858D01*
X98384683Y-102548683D01*
X98371313Y-102550000D01*
X98128687Y-102550000D01*
X98115317Y-102548683D01*
X98106005Y-102545858D01*
X98097417Y-102541268D01*
X98089901Y-102535099D01*
X98083732Y-102527583D01*
X98079142Y-102518995D01*
X98076317Y-102509683D01*
X98075000Y-102496313D01*
X98075000Y-101628687D01*
X98076317Y-101615317D01*
X98079142Y-101606005D01*
X98083732Y-101597417D01*
X98089901Y-101589901D01*
X98097417Y-101583732D01*
X98106005Y-101579142D01*
X98115317Y-101576317D01*
X98128687Y-101575000D01*
X98371313Y-101575000D01*
X98384683Y-101576317D01*
X98384683Y-101576317D01*
G37*
G36*
X98884683Y-101576317D02*
G01*
X98893995Y-101579142D01*
X98902583Y-101583732D01*
X98910099Y-101589901D01*
X98916268Y-101597417D01*
X98920858Y-101606005D01*
X98923683Y-101615317D01*
X98925000Y-101628687D01*
X98925000Y-102496313D01*
X98923683Y-102509683D01*
X98920858Y-102518995D01*
X98916268Y-102527583D01*
X98910099Y-102535099D01*
X98902583Y-102541268D01*
X98893995Y-102545858D01*
X98884683Y-102548683D01*
X98871313Y-102550000D01*
X98628687Y-102550000D01*
X98615317Y-102548683D01*
X98606005Y-102545858D01*
X98597417Y-102541268D01*
X98589901Y-102535099D01*
X98583732Y-102527583D01*
X98579142Y-102518995D01*
X98576317Y-102509683D01*
X98575000Y-102496313D01*
X98575000Y-101628687D01*
X98576317Y-101615317D01*
X98579142Y-101606005D01*
X98583732Y-101597417D01*
X98589901Y-101589901D01*
X98597417Y-101583732D01*
X98606005Y-101579142D01*
X98615317Y-101576317D01*
X98628687Y-101575000D01*
X98871313Y-101575000D01*
X98884683Y-101576317D01*
X98884683Y-101576317D01*
G37*
G36*
X99384683Y-101576317D02*
G01*
X99393995Y-101579142D01*
X99402583Y-101583732D01*
X99410099Y-101589901D01*
X99416268Y-101597417D01*
X99420858Y-101606005D01*
X99423683Y-101615317D01*
X99425000Y-101628687D01*
X99425000Y-102496313D01*
X99423683Y-102509683D01*
X99420858Y-102518995D01*
X99416268Y-102527583D01*
X99410099Y-102535099D01*
X99402583Y-102541268D01*
X99393995Y-102545858D01*
X99384683Y-102548683D01*
X99371313Y-102550000D01*
X99128687Y-102550000D01*
X99115317Y-102548683D01*
X99106005Y-102545858D01*
X99097417Y-102541268D01*
X99089901Y-102535099D01*
X99083732Y-102527583D01*
X99079142Y-102518995D01*
X99076317Y-102509683D01*
X99075000Y-102496313D01*
X99075000Y-101628687D01*
X99076317Y-101615317D01*
X99079142Y-101606005D01*
X99083732Y-101597417D01*
X99089901Y-101589901D01*
X99097417Y-101583732D01*
X99106005Y-101579142D01*
X99115317Y-101576317D01*
X99128687Y-101575000D01*
X99371313Y-101575000D01*
X99384683Y-101576317D01*
X99384683Y-101576317D01*
G37*
G36*
X99884683Y-101576317D02*
G01*
X99893995Y-101579142D01*
X99902583Y-101583732D01*
X99910099Y-101589901D01*
X99916268Y-101597417D01*
X99920858Y-101606005D01*
X99923683Y-101615317D01*
X99925000Y-101628687D01*
X99925000Y-102496313D01*
X99923683Y-102509683D01*
X99920858Y-102518995D01*
X99916268Y-102527583D01*
X99910099Y-102535099D01*
X99902583Y-102541268D01*
X99893995Y-102545858D01*
X99884683Y-102548683D01*
X99871313Y-102550000D01*
X99628687Y-102550000D01*
X99615317Y-102548683D01*
X99606005Y-102545858D01*
X99597417Y-102541268D01*
X99589901Y-102535099D01*
X99583732Y-102527583D01*
X99579142Y-102518995D01*
X99576317Y-102509683D01*
X99575000Y-102496313D01*
X99575000Y-101628687D01*
X99576317Y-101615317D01*
X99579142Y-101606005D01*
X99583732Y-101597417D01*
X99589901Y-101589901D01*
X99597417Y-101583732D01*
X99606005Y-101579142D01*
X99615317Y-101576317D01*
X99628687Y-101575000D01*
X99871313Y-101575000D01*
X99884683Y-101576317D01*
X99884683Y-101576317D01*
G37*
G36*
X100384683Y-101576317D02*
G01*
X100393995Y-101579142D01*
X100402583Y-101583732D01*
X100410099Y-101589901D01*
X100416268Y-101597417D01*
X100420858Y-101606005D01*
X100423683Y-101615317D01*
X100425000Y-101628687D01*
X100425000Y-102496313D01*
X100423683Y-102509683D01*
X100420858Y-102518995D01*
X100416268Y-102527583D01*
X100410099Y-102535099D01*
X100402583Y-102541268D01*
X100393995Y-102545858D01*
X100384683Y-102548683D01*
X100371313Y-102550000D01*
X100128687Y-102550000D01*
X100115317Y-102548683D01*
X100106005Y-102545858D01*
X100097417Y-102541268D01*
X100089901Y-102535099D01*
X100083732Y-102527583D01*
X100079142Y-102518995D01*
X100076317Y-102509683D01*
X100075000Y-102496313D01*
X100075000Y-101628687D01*
X100076317Y-101615317D01*
X100079142Y-101606005D01*
X100083732Y-101597417D01*
X100089901Y-101589901D01*
X100097417Y-101583732D01*
X100106005Y-101579142D01*
X100115317Y-101576317D01*
X100128687Y-101575000D01*
X100371313Y-101575000D01*
X100384683Y-101576317D01*
X100384683Y-101576317D01*
G37*
G36*
X100884683Y-101576317D02*
G01*
X100893995Y-101579142D01*
X100902583Y-101583732D01*
X100910099Y-101589901D01*
X100916268Y-101597417D01*
X100920858Y-101606005D01*
X100923683Y-101615317D01*
X100925000Y-101628687D01*
X100925000Y-102496313D01*
X100923683Y-102509683D01*
X100920858Y-102518995D01*
X100916268Y-102527583D01*
X100910099Y-102535099D01*
X100902583Y-102541268D01*
X100893995Y-102545858D01*
X100884683Y-102548683D01*
X100871313Y-102550000D01*
X100628687Y-102550000D01*
X100615317Y-102548683D01*
X100606005Y-102545858D01*
X100597417Y-102541268D01*
X100589901Y-102535099D01*
X100583732Y-102527583D01*
X100579142Y-102518995D01*
X100576317Y-102509683D01*
X100575000Y-102496313D01*
X100575000Y-101628687D01*
X100576317Y-101615317D01*
X100579142Y-101606005D01*
X100583732Y-101597417D01*
X100589901Y-101589901D01*
X100597417Y-101583732D01*
X100606005Y-101579142D01*
X100615317Y-101576317D01*
X100628687Y-101575000D01*
X100871313Y-101575000D01*
X100884683Y-101576317D01*
X100884683Y-101576317D01*
G37*
G36*
X96384683Y-101576317D02*
G01*
X96393995Y-101579142D01*
X96402583Y-101583732D01*
X96410099Y-101589901D01*
X96416268Y-101597417D01*
X96420858Y-101606005D01*
X96423683Y-101615317D01*
X96425000Y-101628687D01*
X96425000Y-102496313D01*
X96423683Y-102509683D01*
X96420858Y-102518995D01*
X96416268Y-102527583D01*
X96410099Y-102535099D01*
X96402583Y-102541268D01*
X96393995Y-102545858D01*
X96384683Y-102548683D01*
X96371313Y-102550000D01*
X96128687Y-102550000D01*
X96115317Y-102548683D01*
X96106005Y-102545858D01*
X96097417Y-102541268D01*
X96089901Y-102535099D01*
X96083732Y-102527583D01*
X96079142Y-102518995D01*
X96076317Y-102509683D01*
X96075000Y-102496313D01*
X96075000Y-101628687D01*
X96076317Y-101615317D01*
X96079142Y-101606005D01*
X96083732Y-101597417D01*
X96089901Y-101589901D01*
X96097417Y-101583732D01*
X96106005Y-101579142D01*
X96115317Y-101576317D01*
X96128687Y-101575000D01*
X96371313Y-101575000D01*
X96384683Y-101576317D01*
X96384683Y-101576317D01*
G37*
G36*
X95884683Y-101576317D02*
G01*
X95893995Y-101579142D01*
X95902583Y-101583732D01*
X95910099Y-101589901D01*
X95916268Y-101597417D01*
X95920858Y-101606005D01*
X95923683Y-101615317D01*
X95925000Y-101628687D01*
X95925000Y-102496313D01*
X95923683Y-102509683D01*
X95920858Y-102518995D01*
X95916268Y-102527583D01*
X95910099Y-102535099D01*
X95902583Y-102541268D01*
X95893995Y-102545858D01*
X95884683Y-102548683D01*
X95871313Y-102550000D01*
X95628687Y-102550000D01*
X95615317Y-102548683D01*
X95606005Y-102545858D01*
X95597417Y-102541268D01*
X95589901Y-102535099D01*
X95583732Y-102527583D01*
X95579142Y-102518995D01*
X95576317Y-102509683D01*
X95575000Y-102496313D01*
X95575000Y-101628687D01*
X95576317Y-101615317D01*
X95579142Y-101606005D01*
X95583732Y-101597417D01*
X95589901Y-101589901D01*
X95597417Y-101583732D01*
X95606005Y-101579142D01*
X95615317Y-101576317D01*
X95628687Y-101575000D01*
X95871313Y-101575000D01*
X95884683Y-101576317D01*
X95884683Y-101576317D01*
G37*
G36*
X95384683Y-101576317D02*
G01*
X95393995Y-101579142D01*
X95402583Y-101583732D01*
X95410099Y-101589901D01*
X95416268Y-101597417D01*
X95420858Y-101606005D01*
X95423683Y-101615317D01*
X95425000Y-101628687D01*
X95425000Y-102496313D01*
X95423683Y-102509683D01*
X95420858Y-102518995D01*
X95416268Y-102527583D01*
X95410099Y-102535099D01*
X95402583Y-102541268D01*
X95393995Y-102545858D01*
X95384683Y-102548683D01*
X95371313Y-102550000D01*
X95128687Y-102550000D01*
X95115317Y-102548683D01*
X95106005Y-102545858D01*
X95097417Y-102541268D01*
X95089901Y-102535099D01*
X95083732Y-102527583D01*
X95079142Y-102518995D01*
X95076317Y-102509683D01*
X95075000Y-102496313D01*
X95075000Y-101628687D01*
X95076317Y-101615317D01*
X95079142Y-101606005D01*
X95083732Y-101597417D01*
X95089901Y-101589901D01*
X95097417Y-101583732D01*
X95106005Y-101579142D01*
X95115317Y-101576317D01*
X95128687Y-101575000D01*
X95371313Y-101575000D01*
X95384683Y-101576317D01*
X95384683Y-101576317D01*
G37*
G36*
X106300000Y-102500000D02*
G01*
X105200000Y-102500000D01*
X105200000Y-101600000D01*
X106300000Y-101600000D01*
X106300000Y-102500000D01*
X106300000Y-102500000D01*
G37*
G36*
X89300000Y-102500000D02*
G01*
X88200000Y-102500000D01*
X88200000Y-101600000D01*
X89300000Y-101600000D01*
X89300000Y-102500000D01*
X89300000Y-102500000D01*
G37*
G36*
X90800000Y-102500000D02*
G01*
X89700000Y-102500000D01*
X89700000Y-101600000D01*
X90800000Y-101600000D01*
X90800000Y-102500000D01*
X90800000Y-102500000D01*
G37*
G36*
X107800000Y-102500000D02*
G01*
X106700000Y-102500000D01*
X106700000Y-101600000D01*
X107800000Y-101600000D01*
X107800000Y-102500000D01*
X107800000Y-102500000D01*
G37*
G36*
X106300000Y-101400000D02*
G01*
X105200000Y-101400000D01*
X105200000Y-100500000D01*
X106300000Y-100500000D01*
X106300000Y-101400000D01*
X106300000Y-101400000D01*
G37*
G36*
X90800000Y-101400000D02*
G01*
X89700000Y-101400000D01*
X89700000Y-100500000D01*
X90800000Y-100500000D01*
X90800000Y-101400000D01*
X90800000Y-101400000D01*
G37*
G36*
X89300000Y-101400000D02*
G01*
X88200000Y-101400000D01*
X88200000Y-100500000D01*
X89300000Y-100500000D01*
X89300000Y-101400000D01*
X89300000Y-101400000D01*
G37*
G36*
X107800000Y-101400000D02*
G01*
X106700000Y-101400000D01*
X106700000Y-100500000D01*
X107800000Y-100500000D01*
X107800000Y-101400000D01*
X107800000Y-101400000D01*
G37*
G36*
X90480016Y-97507883D02*
G01*
X90521467Y-97520457D01*
X90559658Y-97540871D01*
X90596005Y-97570700D01*
X91338488Y-98313183D01*
X91368317Y-98349530D01*
X91388731Y-98387721D01*
X91401305Y-98429172D01*
X91405550Y-98472272D01*
X91401305Y-98515372D01*
X91388731Y-98556823D01*
X91368317Y-98595014D01*
X91338488Y-98631361D01*
X90631361Y-99338488D01*
X90595014Y-99368317D01*
X90556823Y-99388731D01*
X90515372Y-99401305D01*
X90472272Y-99405550D01*
X90429172Y-99401305D01*
X90387721Y-99388731D01*
X90349530Y-99368317D01*
X90313183Y-99338488D01*
X89570700Y-98596005D01*
X89540871Y-98559658D01*
X89520457Y-98521467D01*
X89507883Y-98480016D01*
X89503638Y-98436916D01*
X89507883Y-98393816D01*
X89520457Y-98352365D01*
X89540871Y-98314174D01*
X89570700Y-98277827D01*
X90277827Y-97570700D01*
X90314174Y-97540871D01*
X90352365Y-97520457D01*
X90393816Y-97507883D01*
X90436916Y-97503638D01*
X90480016Y-97507883D01*
X90480016Y-97507883D01*
G37*
G36*
X105858918Y-98054319D02*
G01*
X105897535Y-98066034D01*
X105933137Y-98085063D01*
X105964334Y-98110666D01*
X105989937Y-98141863D01*
X106008966Y-98177465D01*
X106020681Y-98216082D01*
X106025000Y-98259936D01*
X106025000Y-98815064D01*
X106020681Y-98858918D01*
X106008966Y-98897535D01*
X105989937Y-98933137D01*
X105964334Y-98964334D01*
X105933137Y-98989937D01*
X105897535Y-99008966D01*
X105858918Y-99020681D01*
X105815064Y-99025000D01*
X105184936Y-99025000D01*
X105141082Y-99020681D01*
X105102465Y-99008966D01*
X105066863Y-98989937D01*
X105035666Y-98964334D01*
X105010063Y-98933137D01*
X104991034Y-98897535D01*
X104979319Y-98858918D01*
X104975000Y-98815064D01*
X104975000Y-98259936D01*
X104979319Y-98216082D01*
X104991034Y-98177465D01*
X105010063Y-98141863D01*
X105035666Y-98110666D01*
X105066863Y-98085063D01*
X105102465Y-98066034D01*
X105141082Y-98054319D01*
X105184936Y-98050000D01*
X105815064Y-98050000D01*
X105858918Y-98054319D01*
X105858918Y-98054319D01*
G37*
G36*
X99400000Y-98800000D02*
G01*
X98500000Y-98800000D01*
X98500000Y-97700000D01*
X99400000Y-97700000D01*
X99400000Y-98800000D01*
X99400000Y-98800000D01*
G37*
G36*
X102400000Y-98800000D02*
G01*
X101500000Y-98800000D01*
X101500000Y-97700000D01*
X102400000Y-97700000D01*
X102400000Y-98800000D01*
X102400000Y-98800000D01*
G37*
G36*
X100500000Y-98800000D02*
G01*
X99600000Y-98800000D01*
X99600000Y-97700000D01*
X100500000Y-97700000D01*
X100500000Y-98800000D01*
X100500000Y-98800000D01*
G37*
G36*
X97500000Y-98800000D02*
G01*
X96600000Y-98800000D01*
X96600000Y-97700000D01*
X97500000Y-97700000D01*
X97500000Y-98800000D01*
X97500000Y-98800000D01*
G37*
G36*
X96400000Y-98800000D02*
G01*
X95500000Y-98800000D01*
X95500000Y-97700000D01*
X96400000Y-97700000D01*
X96400000Y-98800000D01*
X96400000Y-98800000D01*
G37*
G36*
X94500000Y-98800000D02*
G01*
X93600000Y-98800000D01*
X93600000Y-97700000D01*
X94500000Y-97700000D01*
X94500000Y-98800000D01*
X94500000Y-98800000D01*
G37*
G36*
X93400000Y-98800000D02*
G01*
X92500000Y-98800000D01*
X92500000Y-97700000D01*
X93400000Y-97700000D01*
X93400000Y-98800000D01*
X93400000Y-98800000D01*
G37*
G36*
X103500000Y-98800000D02*
G01*
X102600000Y-98800000D01*
X102600000Y-97700000D01*
X103500000Y-97700000D01*
X103500000Y-98800000D01*
X103500000Y-98800000D01*
G37*
G36*
X88570828Y-95598695D02*
G01*
X88612279Y-95611269D01*
X88650470Y-95631683D01*
X88686817Y-95661512D01*
X89429300Y-96403995D01*
X89459129Y-96440342D01*
X89479543Y-96478533D01*
X89492117Y-96519984D01*
X89496362Y-96563084D01*
X89492117Y-96606184D01*
X89479543Y-96647635D01*
X89459129Y-96685826D01*
X89429300Y-96722173D01*
X88722173Y-97429300D01*
X88685826Y-97459129D01*
X88647635Y-97479543D01*
X88606184Y-97492117D01*
X88563084Y-97496362D01*
X88519984Y-97492117D01*
X88478533Y-97479543D01*
X88440342Y-97459129D01*
X88403995Y-97429300D01*
X87661512Y-96686817D01*
X87631683Y-96650470D01*
X87611269Y-96612279D01*
X87598695Y-96570828D01*
X87594450Y-96527728D01*
X87598695Y-96484628D01*
X87611269Y-96443177D01*
X87631683Y-96404986D01*
X87661512Y-96368639D01*
X88368639Y-95661512D01*
X88404986Y-95631683D01*
X88443177Y-95611269D01*
X88484628Y-95598695D01*
X88527728Y-95594450D01*
X88570828Y-95598695D01*
X88570828Y-95598695D01*
G37*
G36*
X105858918Y-96479319D02*
G01*
X105897535Y-96491034D01*
X105933137Y-96510063D01*
X105964334Y-96535666D01*
X105989937Y-96566863D01*
X106008966Y-96602465D01*
X106020681Y-96641082D01*
X106025000Y-96684936D01*
X106025000Y-97240064D01*
X106020681Y-97283918D01*
X106008966Y-97322535D01*
X105989937Y-97358137D01*
X105964334Y-97389334D01*
X105933137Y-97414937D01*
X105897535Y-97433966D01*
X105858918Y-97445681D01*
X105815064Y-97450000D01*
X105184936Y-97450000D01*
X105141082Y-97445681D01*
X105102465Y-97433966D01*
X105066863Y-97414937D01*
X105035666Y-97389334D01*
X105010063Y-97358137D01*
X104991034Y-97322535D01*
X104979319Y-97283918D01*
X104975000Y-97240064D01*
X104975000Y-96684936D01*
X104979319Y-96641082D01*
X104991034Y-96602465D01*
X105010063Y-96566863D01*
X105035666Y-96535666D01*
X105066863Y-96510063D01*
X105102465Y-96491034D01*
X105141082Y-96479319D01*
X105184936Y-96475000D01*
X105815064Y-96475000D01*
X105858918Y-96479319D01*
X105858918Y-96479319D01*
G37*
G36*
X99400000Y-97300000D02*
G01*
X98500000Y-97300000D01*
X98500000Y-96200000D01*
X99400000Y-96200000D01*
X99400000Y-97300000D01*
X99400000Y-97300000D01*
G37*
G36*
X103500000Y-97300000D02*
G01*
X102600000Y-97300000D01*
X102600000Y-96200000D01*
X103500000Y-96200000D01*
X103500000Y-97300000D01*
X103500000Y-97300000D01*
G37*
G36*
X93400000Y-97300000D02*
G01*
X92500000Y-97300000D01*
X92500000Y-96200000D01*
X93400000Y-96200000D01*
X93400000Y-97300000D01*
X93400000Y-97300000D01*
G37*
G36*
X94500000Y-97300000D02*
G01*
X93600000Y-97300000D01*
X93600000Y-96200000D01*
X94500000Y-96200000D01*
X94500000Y-97300000D01*
X94500000Y-97300000D01*
G37*
G36*
X96400000Y-97300000D02*
G01*
X95500000Y-97300000D01*
X95500000Y-96200000D01*
X96400000Y-96200000D01*
X96400000Y-97300000D01*
X96400000Y-97300000D01*
G37*
G36*
X97500000Y-97300000D02*
G01*
X96600000Y-97300000D01*
X96600000Y-96200000D01*
X97500000Y-96200000D01*
X97500000Y-97300000D01*
X97500000Y-97300000D01*
G37*
G36*
X100500000Y-97300000D02*
G01*
X99600000Y-97300000D01*
X99600000Y-96200000D01*
X100500000Y-96200000D01*
X100500000Y-97300000D01*
X100500000Y-97300000D01*
G37*
G36*
X102400000Y-97300000D02*
G01*
X101500000Y-97300000D01*
X101500000Y-96200000D01*
X102400000Y-96200000D01*
X102400000Y-97300000D01*
X102400000Y-97300000D01*
G37*
G36*
X89900000Y-91900000D02*
G01*
X88100000Y-91900000D01*
X88100000Y-90100000D01*
X89900000Y-90100000D01*
X89900000Y-91900000D01*
X89900000Y-91900000D01*
G37*
G36*
X91716431Y-90113023D02*
G01*
X91841939Y-90151096D01*
X91886085Y-90164487D01*
X92042431Y-90248056D01*
X92179475Y-90360525D01*
X92291944Y-90497569D01*
X92375513Y-90653915D01*
X92375514Y-90653919D01*
X92426977Y-90823569D01*
X92444354Y-91000000D01*
X92426977Y-91176431D01*
X92388904Y-91301939D01*
X92375513Y-91346085D01*
X92291944Y-91502431D01*
X92179475Y-91639475D01*
X92042431Y-91751944D01*
X91886085Y-91835513D01*
X91841939Y-91848904D01*
X91716431Y-91886977D01*
X91584207Y-91900000D01*
X91495793Y-91900000D01*
X91363569Y-91886977D01*
X91238061Y-91848904D01*
X91193915Y-91835513D01*
X91037569Y-91751944D01*
X90900525Y-91639475D01*
X90788056Y-91502431D01*
X90704487Y-91346085D01*
X90691096Y-91301939D01*
X90653023Y-91176431D01*
X90635646Y-91000000D01*
X90653023Y-90823569D01*
X90704486Y-90653919D01*
X90704487Y-90653915D01*
X90788056Y-90497569D01*
X90900525Y-90360525D01*
X91037569Y-90248056D01*
X91193915Y-90164487D01*
X91238061Y-90151096D01*
X91363569Y-90113023D01*
X91495793Y-90100000D01*
X91584207Y-90100000D01*
X91716431Y-90113023D01*
X91716431Y-90113023D01*
G37*
G36*
X94256431Y-90113023D02*
G01*
X94381939Y-90151096D01*
X94426085Y-90164487D01*
X94582431Y-90248056D01*
X94719475Y-90360525D01*
X94831944Y-90497569D01*
X94915513Y-90653915D01*
X94915514Y-90653919D01*
X94966977Y-90823569D01*
X94984354Y-91000000D01*
X94966977Y-91176431D01*
X94928904Y-91301939D01*
X94915513Y-91346085D01*
X94831944Y-91502431D01*
X94719475Y-91639475D01*
X94582431Y-91751944D01*
X94426085Y-91835513D01*
X94381939Y-91848904D01*
X94256431Y-91886977D01*
X94124207Y-91900000D01*
X94035793Y-91900000D01*
X93903569Y-91886977D01*
X93778061Y-91848904D01*
X93733915Y-91835513D01*
X93577569Y-91751944D01*
X93440525Y-91639475D01*
X93328056Y-91502431D01*
X93244487Y-91346085D01*
X93231096Y-91301939D01*
X93193023Y-91176431D01*
X93175646Y-91000000D01*
X93193023Y-90823569D01*
X93244486Y-90653919D01*
X93244487Y-90653915D01*
X93328056Y-90497569D01*
X93440525Y-90360525D01*
X93577569Y-90248056D01*
X93733915Y-90164487D01*
X93778061Y-90151096D01*
X93903569Y-90113023D01*
X94035793Y-90100000D01*
X94124207Y-90100000D01*
X94256431Y-90113023D01*
X94256431Y-90113023D01*
G37*
G36*
X96796431Y-90113023D02*
G01*
X96921939Y-90151096D01*
X96966085Y-90164487D01*
X97122431Y-90248056D01*
X97259475Y-90360525D01*
X97371944Y-90497569D01*
X97455513Y-90653915D01*
X97455514Y-90653919D01*
X97506977Y-90823569D01*
X97524354Y-91000000D01*
X97506977Y-91176431D01*
X97468904Y-91301939D01*
X97455513Y-91346085D01*
X97371944Y-91502431D01*
X97259475Y-91639475D01*
X97122431Y-91751944D01*
X96966085Y-91835513D01*
X96921939Y-91848904D01*
X96796431Y-91886977D01*
X96664207Y-91900000D01*
X96575793Y-91900000D01*
X96443569Y-91886977D01*
X96318061Y-91848904D01*
X96273915Y-91835513D01*
X96117569Y-91751944D01*
X95980525Y-91639475D01*
X95868056Y-91502431D01*
X95784487Y-91346085D01*
X95771096Y-91301939D01*
X95733023Y-91176431D01*
X95715646Y-91000000D01*
X95733023Y-90823569D01*
X95784486Y-90653919D01*
X95784487Y-90653915D01*
X95868056Y-90497569D01*
X95980525Y-90360525D01*
X96117569Y-90248056D01*
X96273915Y-90164487D01*
X96318061Y-90151096D01*
X96443569Y-90113023D01*
X96575793Y-90100000D01*
X96664207Y-90100000D01*
X96796431Y-90113023D01*
X96796431Y-90113023D01*
G37*
G36*
X99336431Y-90113023D02*
G01*
X99461939Y-90151096D01*
X99506085Y-90164487D01*
X99662431Y-90248056D01*
X99799475Y-90360525D01*
X99911944Y-90497569D01*
X99995513Y-90653915D01*
X99995514Y-90653919D01*
X100046977Y-90823569D01*
X100064354Y-91000000D01*
X100046977Y-91176431D01*
X100008904Y-91301939D01*
X99995513Y-91346085D01*
X99911944Y-91502431D01*
X99799475Y-91639475D01*
X99662431Y-91751944D01*
X99506085Y-91835513D01*
X99461939Y-91848904D01*
X99336431Y-91886977D01*
X99204207Y-91900000D01*
X99115793Y-91900000D01*
X98983569Y-91886977D01*
X98858061Y-91848904D01*
X98813915Y-91835513D01*
X98657569Y-91751944D01*
X98520525Y-91639475D01*
X98408056Y-91502431D01*
X98324487Y-91346085D01*
X98311096Y-91301939D01*
X98273023Y-91176431D01*
X98255646Y-91000000D01*
X98273023Y-90823569D01*
X98324486Y-90653919D01*
X98324487Y-90653915D01*
X98408056Y-90497569D01*
X98520525Y-90360525D01*
X98657569Y-90248056D01*
X98813915Y-90164487D01*
X98858061Y-90151096D01*
X98983569Y-90113023D01*
X99115793Y-90100000D01*
X99204207Y-90100000D01*
X99336431Y-90113023D01*
X99336431Y-90113023D01*
G37*
G36*
X101876431Y-90113023D02*
G01*
X102001939Y-90151096D01*
X102046085Y-90164487D01*
X102202431Y-90248056D01*
X102339475Y-90360525D01*
X102451944Y-90497569D01*
X102535513Y-90653915D01*
X102535514Y-90653919D01*
X102586977Y-90823569D01*
X102604354Y-91000000D01*
X102586977Y-91176431D01*
X102548904Y-91301939D01*
X102535513Y-91346085D01*
X102451944Y-91502431D01*
X102339475Y-91639475D01*
X102202431Y-91751944D01*
X102046085Y-91835513D01*
X102001939Y-91848904D01*
X101876431Y-91886977D01*
X101744207Y-91900000D01*
X101655793Y-91900000D01*
X101523569Y-91886977D01*
X101398061Y-91848904D01*
X101353915Y-91835513D01*
X101197569Y-91751944D01*
X101060525Y-91639475D01*
X100948056Y-91502431D01*
X100864487Y-91346085D01*
X100851096Y-91301939D01*
X100813023Y-91176431D01*
X100795646Y-91000000D01*
X100813023Y-90823569D01*
X100864486Y-90653919D01*
X100864487Y-90653915D01*
X100948056Y-90497569D01*
X101060525Y-90360525D01*
X101197569Y-90248056D01*
X101353915Y-90164487D01*
X101398061Y-90151096D01*
X101523569Y-90113023D01*
X101655793Y-90100000D01*
X101744207Y-90100000D01*
X101876431Y-90113023D01*
X101876431Y-90113023D01*
G37*
G36*
X104416431Y-90113023D02*
G01*
X104541939Y-90151096D01*
X104586085Y-90164487D01*
X104742431Y-90248056D01*
X104879475Y-90360525D01*
X104991944Y-90497569D01*
X105075513Y-90653915D01*
X105075514Y-90653919D01*
X105126977Y-90823569D01*
X105144354Y-91000000D01*
X105126977Y-91176431D01*
X105088904Y-91301939D01*
X105075513Y-91346085D01*
X104991944Y-91502431D01*
X104879475Y-91639475D01*
X104742431Y-91751944D01*
X104586085Y-91835513D01*
X104541939Y-91848904D01*
X104416431Y-91886977D01*
X104284207Y-91900000D01*
X104195793Y-91900000D01*
X104063569Y-91886977D01*
X103938061Y-91848904D01*
X103893915Y-91835513D01*
X103737569Y-91751944D01*
X103600525Y-91639475D01*
X103488056Y-91502431D01*
X103404487Y-91346085D01*
X103391096Y-91301939D01*
X103353023Y-91176431D01*
X103335646Y-91000000D01*
X103353023Y-90823569D01*
X103404486Y-90653919D01*
X103404487Y-90653915D01*
X103488056Y-90497569D01*
X103600525Y-90360525D01*
X103737569Y-90248056D01*
X103893915Y-90164487D01*
X103938061Y-90151096D01*
X104063569Y-90113023D01*
X104195793Y-90100000D01*
X104284207Y-90100000D01*
X104416431Y-90113023D01*
X104416431Y-90113023D01*
G37*
G36*
X106956431Y-90113023D02*
G01*
X107081939Y-90151096D01*
X107126085Y-90164487D01*
X107282431Y-90248056D01*
X107419475Y-90360525D01*
X107531944Y-90497569D01*
X107615513Y-90653915D01*
X107615514Y-90653919D01*
X107666977Y-90823569D01*
X107684354Y-91000000D01*
X107666977Y-91176431D01*
X107628904Y-91301939D01*
X107615513Y-91346085D01*
X107531944Y-91502431D01*
X107419475Y-91639475D01*
X107282431Y-91751944D01*
X107126085Y-91835513D01*
X107081939Y-91848904D01*
X106956431Y-91886977D01*
X106824207Y-91900000D01*
X106735793Y-91900000D01*
X106603569Y-91886977D01*
X106478061Y-91848904D01*
X106433915Y-91835513D01*
X106277569Y-91751944D01*
X106140525Y-91639475D01*
X106028056Y-91502431D01*
X105944487Y-91346085D01*
X105931096Y-91301939D01*
X105893023Y-91176431D01*
X105875646Y-91000000D01*
X105893023Y-90823569D01*
X105944486Y-90653919D01*
X105944487Y-90653915D01*
X106028056Y-90497569D01*
X106140525Y-90360525D01*
X106277569Y-90248056D01*
X106433915Y-90164487D01*
X106478061Y-90151096D01*
X106603569Y-90113023D01*
X106735793Y-90100000D01*
X106824207Y-90100000D01*
X106956431Y-90113023D01*
X106956431Y-90113023D01*
G37*
M02*
