G04 #@! TF.GenerationSoftware,KiCad,Pcbnew,(5.1.2)-2*
G04 #@! TF.CreationDate,2019-06-12T22:46:05+02:00*
G04 #@! TF.ProjectId,TLC5954-Eval,544c4335-3935-4342-9d45-76616c2e6b69,rev?*
G04 #@! TF.SameCoordinates,Original*
G04 #@! TF.FileFunction,Soldermask,Bot*
G04 #@! TF.FilePolarity,Negative*
%FSLAX46Y46*%
G04 Gerber Fmt 4.6, Leading zero omitted, Abs format (unit mm)*
G04 Created by KiCad (PCBNEW (5.1.2)-2) date 2019-06-12 22:46:05*
%MOMM*%
%LPD*%
G04 APERTURE LIST*
%ADD10C,0.100000*%
G04 APERTURE END LIST*
D10*
G36*
X104416431Y-120113023D02*
G01*
X104541939Y-120151096D01*
X104586085Y-120164487D01*
X104742431Y-120248056D01*
X104879475Y-120360525D01*
X104991944Y-120497569D01*
X105075513Y-120653915D01*
X105075514Y-120653919D01*
X105126977Y-120823569D01*
X105144354Y-121000000D01*
X105126977Y-121176431D01*
X105088904Y-121301939D01*
X105075513Y-121346085D01*
X104991944Y-121502431D01*
X104879475Y-121639475D01*
X104742431Y-121751944D01*
X104586085Y-121835513D01*
X104541939Y-121848904D01*
X104416431Y-121886977D01*
X104284207Y-121900000D01*
X104195793Y-121900000D01*
X104063569Y-121886977D01*
X103938061Y-121848904D01*
X103893915Y-121835513D01*
X103737569Y-121751944D01*
X103600525Y-121639475D01*
X103488056Y-121502431D01*
X103404487Y-121346085D01*
X103391096Y-121301939D01*
X103353023Y-121176431D01*
X103335646Y-121000000D01*
X103353023Y-120823569D01*
X103404486Y-120653919D01*
X103404487Y-120653915D01*
X103488056Y-120497569D01*
X103600525Y-120360525D01*
X103737569Y-120248056D01*
X103893915Y-120164487D01*
X103938061Y-120151096D01*
X104063569Y-120113023D01*
X104195793Y-120100000D01*
X104284207Y-120100000D01*
X104416431Y-120113023D01*
X104416431Y-120113023D01*
G37*
G36*
X89900000Y-121900000D02*
G01*
X88100000Y-121900000D01*
X88100000Y-120100000D01*
X89900000Y-120100000D01*
X89900000Y-121900000D01*
X89900000Y-121900000D01*
G37*
G36*
X91716431Y-120113023D02*
G01*
X91841939Y-120151096D01*
X91886085Y-120164487D01*
X92042431Y-120248056D01*
X92179475Y-120360525D01*
X92291944Y-120497569D01*
X92375513Y-120653915D01*
X92375514Y-120653919D01*
X92426977Y-120823569D01*
X92444354Y-121000000D01*
X92426977Y-121176431D01*
X92388904Y-121301939D01*
X92375513Y-121346085D01*
X92291944Y-121502431D01*
X92179475Y-121639475D01*
X92042431Y-121751944D01*
X91886085Y-121835513D01*
X91841939Y-121848904D01*
X91716431Y-121886977D01*
X91584207Y-121900000D01*
X91495793Y-121900000D01*
X91363569Y-121886977D01*
X91238061Y-121848904D01*
X91193915Y-121835513D01*
X91037569Y-121751944D01*
X90900525Y-121639475D01*
X90788056Y-121502431D01*
X90704487Y-121346085D01*
X90691096Y-121301939D01*
X90653023Y-121176431D01*
X90635646Y-121000000D01*
X90653023Y-120823569D01*
X90704486Y-120653919D01*
X90704487Y-120653915D01*
X90788056Y-120497569D01*
X90900525Y-120360525D01*
X91037569Y-120248056D01*
X91193915Y-120164487D01*
X91238061Y-120151096D01*
X91363569Y-120113023D01*
X91495793Y-120100000D01*
X91584207Y-120100000D01*
X91716431Y-120113023D01*
X91716431Y-120113023D01*
G37*
G36*
X94256431Y-120113023D02*
G01*
X94381939Y-120151096D01*
X94426085Y-120164487D01*
X94582431Y-120248056D01*
X94719475Y-120360525D01*
X94831944Y-120497569D01*
X94915513Y-120653915D01*
X94915514Y-120653919D01*
X94966977Y-120823569D01*
X94984354Y-121000000D01*
X94966977Y-121176431D01*
X94928904Y-121301939D01*
X94915513Y-121346085D01*
X94831944Y-121502431D01*
X94719475Y-121639475D01*
X94582431Y-121751944D01*
X94426085Y-121835513D01*
X94381939Y-121848904D01*
X94256431Y-121886977D01*
X94124207Y-121900000D01*
X94035793Y-121900000D01*
X93903569Y-121886977D01*
X93778061Y-121848904D01*
X93733915Y-121835513D01*
X93577569Y-121751944D01*
X93440525Y-121639475D01*
X93328056Y-121502431D01*
X93244487Y-121346085D01*
X93231096Y-121301939D01*
X93193023Y-121176431D01*
X93175646Y-121000000D01*
X93193023Y-120823569D01*
X93244486Y-120653919D01*
X93244487Y-120653915D01*
X93328056Y-120497569D01*
X93440525Y-120360525D01*
X93577569Y-120248056D01*
X93733915Y-120164487D01*
X93778061Y-120151096D01*
X93903569Y-120113023D01*
X94035793Y-120100000D01*
X94124207Y-120100000D01*
X94256431Y-120113023D01*
X94256431Y-120113023D01*
G37*
G36*
X96796431Y-120113023D02*
G01*
X96921939Y-120151096D01*
X96966085Y-120164487D01*
X97122431Y-120248056D01*
X97259475Y-120360525D01*
X97371944Y-120497569D01*
X97455513Y-120653915D01*
X97455514Y-120653919D01*
X97506977Y-120823569D01*
X97524354Y-121000000D01*
X97506977Y-121176431D01*
X97468904Y-121301939D01*
X97455513Y-121346085D01*
X97371944Y-121502431D01*
X97259475Y-121639475D01*
X97122431Y-121751944D01*
X96966085Y-121835513D01*
X96921939Y-121848904D01*
X96796431Y-121886977D01*
X96664207Y-121900000D01*
X96575793Y-121900000D01*
X96443569Y-121886977D01*
X96318061Y-121848904D01*
X96273915Y-121835513D01*
X96117569Y-121751944D01*
X95980525Y-121639475D01*
X95868056Y-121502431D01*
X95784487Y-121346085D01*
X95771096Y-121301939D01*
X95733023Y-121176431D01*
X95715646Y-121000000D01*
X95733023Y-120823569D01*
X95784486Y-120653919D01*
X95784487Y-120653915D01*
X95868056Y-120497569D01*
X95980525Y-120360525D01*
X96117569Y-120248056D01*
X96273915Y-120164487D01*
X96318061Y-120151096D01*
X96443569Y-120113023D01*
X96575793Y-120100000D01*
X96664207Y-120100000D01*
X96796431Y-120113023D01*
X96796431Y-120113023D01*
G37*
G36*
X99336431Y-120113023D02*
G01*
X99461939Y-120151096D01*
X99506085Y-120164487D01*
X99662431Y-120248056D01*
X99799475Y-120360525D01*
X99911944Y-120497569D01*
X99995513Y-120653915D01*
X99995514Y-120653919D01*
X100046977Y-120823569D01*
X100064354Y-121000000D01*
X100046977Y-121176431D01*
X100008904Y-121301939D01*
X99995513Y-121346085D01*
X99911944Y-121502431D01*
X99799475Y-121639475D01*
X99662431Y-121751944D01*
X99506085Y-121835513D01*
X99461939Y-121848904D01*
X99336431Y-121886977D01*
X99204207Y-121900000D01*
X99115793Y-121900000D01*
X98983569Y-121886977D01*
X98858061Y-121848904D01*
X98813915Y-121835513D01*
X98657569Y-121751944D01*
X98520525Y-121639475D01*
X98408056Y-121502431D01*
X98324487Y-121346085D01*
X98311096Y-121301939D01*
X98273023Y-121176431D01*
X98255646Y-121000000D01*
X98273023Y-120823569D01*
X98324486Y-120653919D01*
X98324487Y-120653915D01*
X98408056Y-120497569D01*
X98520525Y-120360525D01*
X98657569Y-120248056D01*
X98813915Y-120164487D01*
X98858061Y-120151096D01*
X98983569Y-120113023D01*
X99115793Y-120100000D01*
X99204207Y-120100000D01*
X99336431Y-120113023D01*
X99336431Y-120113023D01*
G37*
G36*
X101876431Y-120113023D02*
G01*
X102001939Y-120151096D01*
X102046085Y-120164487D01*
X102202431Y-120248056D01*
X102339475Y-120360525D01*
X102451944Y-120497569D01*
X102535513Y-120653915D01*
X102535514Y-120653919D01*
X102586977Y-120823569D01*
X102604354Y-121000000D01*
X102586977Y-121176431D01*
X102548904Y-121301939D01*
X102535513Y-121346085D01*
X102451944Y-121502431D01*
X102339475Y-121639475D01*
X102202431Y-121751944D01*
X102046085Y-121835513D01*
X102001939Y-121848904D01*
X101876431Y-121886977D01*
X101744207Y-121900000D01*
X101655793Y-121900000D01*
X101523569Y-121886977D01*
X101398061Y-121848904D01*
X101353915Y-121835513D01*
X101197569Y-121751944D01*
X101060525Y-121639475D01*
X100948056Y-121502431D01*
X100864487Y-121346085D01*
X100851096Y-121301939D01*
X100813023Y-121176431D01*
X100795646Y-121000000D01*
X100813023Y-120823569D01*
X100864486Y-120653919D01*
X100864487Y-120653915D01*
X100948056Y-120497569D01*
X101060525Y-120360525D01*
X101197569Y-120248056D01*
X101353915Y-120164487D01*
X101398061Y-120151096D01*
X101523569Y-120113023D01*
X101655793Y-120100000D01*
X101744207Y-120100000D01*
X101876431Y-120113023D01*
X101876431Y-120113023D01*
G37*
G36*
X106956431Y-120113023D02*
G01*
X107081939Y-120151096D01*
X107126085Y-120164487D01*
X107282431Y-120248056D01*
X107419475Y-120360525D01*
X107531944Y-120497569D01*
X107615513Y-120653915D01*
X107615514Y-120653919D01*
X107666977Y-120823569D01*
X107684354Y-121000000D01*
X107666977Y-121176431D01*
X107628904Y-121301939D01*
X107615513Y-121346085D01*
X107531944Y-121502431D01*
X107419475Y-121639475D01*
X107282431Y-121751944D01*
X107126085Y-121835513D01*
X107081939Y-121848904D01*
X106956431Y-121886977D01*
X106824207Y-121900000D01*
X106735793Y-121900000D01*
X106603569Y-121886977D01*
X106478061Y-121848904D01*
X106433915Y-121835513D01*
X106277569Y-121751944D01*
X106140525Y-121639475D01*
X106028056Y-121502431D01*
X105944487Y-121346085D01*
X105931096Y-121301939D01*
X105893023Y-121176431D01*
X105875646Y-121000000D01*
X105893023Y-120823569D01*
X105944486Y-120653919D01*
X105944487Y-120653915D01*
X106028056Y-120497569D01*
X106140525Y-120360525D01*
X106277569Y-120248056D01*
X106433915Y-120164487D01*
X106478061Y-120151096D01*
X106603569Y-120113023D01*
X106735793Y-120100000D01*
X106824207Y-120100000D01*
X106956431Y-120113023D01*
X106956431Y-120113023D01*
G37*
G36*
X89900000Y-91900000D02*
G01*
X88100000Y-91900000D01*
X88100000Y-90100000D01*
X89900000Y-90100000D01*
X89900000Y-91900000D01*
X89900000Y-91900000D01*
G37*
G36*
X104416431Y-90113023D02*
G01*
X104541939Y-90151096D01*
X104586085Y-90164487D01*
X104742431Y-90248056D01*
X104879475Y-90360525D01*
X104991944Y-90497569D01*
X105075513Y-90653915D01*
X105075514Y-90653919D01*
X105126977Y-90823569D01*
X105144354Y-91000000D01*
X105126977Y-91176431D01*
X105088904Y-91301939D01*
X105075513Y-91346085D01*
X104991944Y-91502431D01*
X104879475Y-91639475D01*
X104742431Y-91751944D01*
X104586085Y-91835513D01*
X104541939Y-91848904D01*
X104416431Y-91886977D01*
X104284207Y-91900000D01*
X104195793Y-91900000D01*
X104063569Y-91886977D01*
X103938061Y-91848904D01*
X103893915Y-91835513D01*
X103737569Y-91751944D01*
X103600525Y-91639475D01*
X103488056Y-91502431D01*
X103404487Y-91346085D01*
X103391096Y-91301939D01*
X103353023Y-91176431D01*
X103335646Y-91000000D01*
X103353023Y-90823569D01*
X103404486Y-90653919D01*
X103404487Y-90653915D01*
X103488056Y-90497569D01*
X103600525Y-90360525D01*
X103737569Y-90248056D01*
X103893915Y-90164487D01*
X103938061Y-90151096D01*
X104063569Y-90113023D01*
X104195793Y-90100000D01*
X104284207Y-90100000D01*
X104416431Y-90113023D01*
X104416431Y-90113023D01*
G37*
G36*
X91716431Y-90113023D02*
G01*
X91841939Y-90151096D01*
X91886085Y-90164487D01*
X92042431Y-90248056D01*
X92179475Y-90360525D01*
X92291944Y-90497569D01*
X92375513Y-90653915D01*
X92375514Y-90653919D01*
X92426977Y-90823569D01*
X92444354Y-91000000D01*
X92426977Y-91176431D01*
X92388904Y-91301939D01*
X92375513Y-91346085D01*
X92291944Y-91502431D01*
X92179475Y-91639475D01*
X92042431Y-91751944D01*
X91886085Y-91835513D01*
X91841939Y-91848904D01*
X91716431Y-91886977D01*
X91584207Y-91900000D01*
X91495793Y-91900000D01*
X91363569Y-91886977D01*
X91238061Y-91848904D01*
X91193915Y-91835513D01*
X91037569Y-91751944D01*
X90900525Y-91639475D01*
X90788056Y-91502431D01*
X90704487Y-91346085D01*
X90691096Y-91301939D01*
X90653023Y-91176431D01*
X90635646Y-91000000D01*
X90653023Y-90823569D01*
X90704486Y-90653919D01*
X90704487Y-90653915D01*
X90788056Y-90497569D01*
X90900525Y-90360525D01*
X91037569Y-90248056D01*
X91193915Y-90164487D01*
X91238061Y-90151096D01*
X91363569Y-90113023D01*
X91495793Y-90100000D01*
X91584207Y-90100000D01*
X91716431Y-90113023D01*
X91716431Y-90113023D01*
G37*
G36*
X94256431Y-90113023D02*
G01*
X94381939Y-90151096D01*
X94426085Y-90164487D01*
X94582431Y-90248056D01*
X94719475Y-90360525D01*
X94831944Y-90497569D01*
X94915513Y-90653915D01*
X94915514Y-90653919D01*
X94966977Y-90823569D01*
X94984354Y-91000000D01*
X94966977Y-91176431D01*
X94928904Y-91301939D01*
X94915513Y-91346085D01*
X94831944Y-91502431D01*
X94719475Y-91639475D01*
X94582431Y-91751944D01*
X94426085Y-91835513D01*
X94381939Y-91848904D01*
X94256431Y-91886977D01*
X94124207Y-91900000D01*
X94035793Y-91900000D01*
X93903569Y-91886977D01*
X93778061Y-91848904D01*
X93733915Y-91835513D01*
X93577569Y-91751944D01*
X93440525Y-91639475D01*
X93328056Y-91502431D01*
X93244487Y-91346085D01*
X93231096Y-91301939D01*
X93193023Y-91176431D01*
X93175646Y-91000000D01*
X93193023Y-90823569D01*
X93244486Y-90653919D01*
X93244487Y-90653915D01*
X93328056Y-90497569D01*
X93440525Y-90360525D01*
X93577569Y-90248056D01*
X93733915Y-90164487D01*
X93778061Y-90151096D01*
X93903569Y-90113023D01*
X94035793Y-90100000D01*
X94124207Y-90100000D01*
X94256431Y-90113023D01*
X94256431Y-90113023D01*
G37*
G36*
X96796431Y-90113023D02*
G01*
X96921939Y-90151096D01*
X96966085Y-90164487D01*
X97122431Y-90248056D01*
X97259475Y-90360525D01*
X97371944Y-90497569D01*
X97455513Y-90653915D01*
X97455514Y-90653919D01*
X97506977Y-90823569D01*
X97524354Y-91000000D01*
X97506977Y-91176431D01*
X97468904Y-91301939D01*
X97455513Y-91346085D01*
X97371944Y-91502431D01*
X97259475Y-91639475D01*
X97122431Y-91751944D01*
X96966085Y-91835513D01*
X96921939Y-91848904D01*
X96796431Y-91886977D01*
X96664207Y-91900000D01*
X96575793Y-91900000D01*
X96443569Y-91886977D01*
X96318061Y-91848904D01*
X96273915Y-91835513D01*
X96117569Y-91751944D01*
X95980525Y-91639475D01*
X95868056Y-91502431D01*
X95784487Y-91346085D01*
X95771096Y-91301939D01*
X95733023Y-91176431D01*
X95715646Y-91000000D01*
X95733023Y-90823569D01*
X95784486Y-90653919D01*
X95784487Y-90653915D01*
X95868056Y-90497569D01*
X95980525Y-90360525D01*
X96117569Y-90248056D01*
X96273915Y-90164487D01*
X96318061Y-90151096D01*
X96443569Y-90113023D01*
X96575793Y-90100000D01*
X96664207Y-90100000D01*
X96796431Y-90113023D01*
X96796431Y-90113023D01*
G37*
G36*
X99336431Y-90113023D02*
G01*
X99461939Y-90151096D01*
X99506085Y-90164487D01*
X99662431Y-90248056D01*
X99799475Y-90360525D01*
X99911944Y-90497569D01*
X99995513Y-90653915D01*
X99995514Y-90653919D01*
X100046977Y-90823569D01*
X100064354Y-91000000D01*
X100046977Y-91176431D01*
X100008904Y-91301939D01*
X99995513Y-91346085D01*
X99911944Y-91502431D01*
X99799475Y-91639475D01*
X99662431Y-91751944D01*
X99506085Y-91835513D01*
X99461939Y-91848904D01*
X99336431Y-91886977D01*
X99204207Y-91900000D01*
X99115793Y-91900000D01*
X98983569Y-91886977D01*
X98858061Y-91848904D01*
X98813915Y-91835513D01*
X98657569Y-91751944D01*
X98520525Y-91639475D01*
X98408056Y-91502431D01*
X98324487Y-91346085D01*
X98311096Y-91301939D01*
X98273023Y-91176431D01*
X98255646Y-91000000D01*
X98273023Y-90823569D01*
X98324486Y-90653919D01*
X98324487Y-90653915D01*
X98408056Y-90497569D01*
X98520525Y-90360525D01*
X98657569Y-90248056D01*
X98813915Y-90164487D01*
X98858061Y-90151096D01*
X98983569Y-90113023D01*
X99115793Y-90100000D01*
X99204207Y-90100000D01*
X99336431Y-90113023D01*
X99336431Y-90113023D01*
G37*
G36*
X101876431Y-90113023D02*
G01*
X102001939Y-90151096D01*
X102046085Y-90164487D01*
X102202431Y-90248056D01*
X102339475Y-90360525D01*
X102451944Y-90497569D01*
X102535513Y-90653915D01*
X102535514Y-90653919D01*
X102586977Y-90823569D01*
X102604354Y-91000000D01*
X102586977Y-91176431D01*
X102548904Y-91301939D01*
X102535513Y-91346085D01*
X102451944Y-91502431D01*
X102339475Y-91639475D01*
X102202431Y-91751944D01*
X102046085Y-91835513D01*
X102001939Y-91848904D01*
X101876431Y-91886977D01*
X101744207Y-91900000D01*
X101655793Y-91900000D01*
X101523569Y-91886977D01*
X101398061Y-91848904D01*
X101353915Y-91835513D01*
X101197569Y-91751944D01*
X101060525Y-91639475D01*
X100948056Y-91502431D01*
X100864487Y-91346085D01*
X100851096Y-91301939D01*
X100813023Y-91176431D01*
X100795646Y-91000000D01*
X100813023Y-90823569D01*
X100864486Y-90653919D01*
X100864487Y-90653915D01*
X100948056Y-90497569D01*
X101060525Y-90360525D01*
X101197569Y-90248056D01*
X101353915Y-90164487D01*
X101398061Y-90151096D01*
X101523569Y-90113023D01*
X101655793Y-90100000D01*
X101744207Y-90100000D01*
X101876431Y-90113023D01*
X101876431Y-90113023D01*
G37*
G36*
X106956431Y-90113023D02*
G01*
X107081939Y-90151096D01*
X107126085Y-90164487D01*
X107282431Y-90248056D01*
X107419475Y-90360525D01*
X107531944Y-90497569D01*
X107615513Y-90653915D01*
X107615514Y-90653919D01*
X107666977Y-90823569D01*
X107684354Y-91000000D01*
X107666977Y-91176431D01*
X107628904Y-91301939D01*
X107615513Y-91346085D01*
X107531944Y-91502431D01*
X107419475Y-91639475D01*
X107282431Y-91751944D01*
X107126085Y-91835513D01*
X107081939Y-91848904D01*
X106956431Y-91886977D01*
X106824207Y-91900000D01*
X106735793Y-91900000D01*
X106603569Y-91886977D01*
X106478061Y-91848904D01*
X106433915Y-91835513D01*
X106277569Y-91751944D01*
X106140525Y-91639475D01*
X106028056Y-91502431D01*
X105944487Y-91346085D01*
X105931096Y-91301939D01*
X105893023Y-91176431D01*
X105875646Y-91000000D01*
X105893023Y-90823569D01*
X105944486Y-90653919D01*
X105944487Y-90653915D01*
X106028056Y-90497569D01*
X106140525Y-90360525D01*
X106277569Y-90248056D01*
X106433915Y-90164487D01*
X106478061Y-90151096D01*
X106603569Y-90113023D01*
X106735793Y-90100000D01*
X106824207Y-90100000D01*
X106956431Y-90113023D01*
X106956431Y-90113023D01*
G37*
M02*
